<svg xmlns="http://www.w3.org/2000/svg" width="206" height="66"  fill="#fff" fill-rule="evenodd" xmlns:v="https://vecta.io/nano"><path d="M103.514 17.108s.228-3.059 2.473-3.085c1.83-.023 2.177.766 2.177.766a4.187 4.187 0 0 0 1.5-.788 2.265 2.265 0 0 1-.612 1.378 1.57 1.57 0 0 0 .948-.328 1.789 1.789 0 0 1-1 1.136 8.521 8.521 0 0 1-1.539 5.406c-1.633 2.256-4.61 2.425-6.24 2.444a9.035 9.035 0 0 1-3.72-1.03s2.475.029 3.584-.74a17.361 17.361 0 0 1-2.453-1.925 2.566 2.566 0 0 0 .888-.085 12.607 12.607 0 0 1-2.02-2.648 3.394 3.394 0 0 0 .931.046s-1.44-2.225-.76-3.668c.003 0 2.441 2.925 5.843 3.121zM127 11h8a4 4 0 0 1 4 4v8.031a4 4 0 0 1-4 4h-8a4 4 0 0 1-4-4V15a4 4 0 0 1 4-4zm0 2h8a2 2 0 0 1 2 2v8.031a2 2 0 0 1-2 2h-8a2 2 0 0 1-2-2V15a2 2 0 0 1 2-2zm4 2.969A3.031 3.031 0 1 1 127.969 19 3.031 3.031 0 0 1 131 15.969zm.016 1.859a1.188 1.188 0 1 1-1.188 1.188 1.188 1.188 0 0 1 1.188-1.188zM135 14a1 1 0 1 1-1 1 1 1 0 0 1 1-1zm20.986 2.98h-2V24h2v-7.02zm4.151 0h-2.121V24h2.121v-4.526a1.8 1.8 0 0 1 1.346-.785 1.257 1.257 0 0 1 1.321 1.284L162.79 24h2.184v-3.932c0-1.66-.486-3.121-2.546-3.121a2.968 2.968 0 0 0-2.3 1.114zM155 13.906A1.094 1.094 0 1 1 153.906 15 1.094 1.094 0 0 1 155 13.906zm40 8.388a4.684 4.684 0 0 1-7.558 3.72l-.442.044A7.059 7.059 0 0 1 179.941 19c0-.152.035-.293.045-.443a4.658 4.658 0 0 1-.986-2.852 4.683 4.683 0 0 1 7.558-3.72c.149-.009.29-.045.442-.045a7.059 7.059 0 0 1 7.059 7.06c0 .152-.035.293-.045.442a4.664 4.664 0 0 1 .986 2.852zm-5.159-2.733a1.881 1.881 0 0 0-.58-.685 3.533 3.533 0 0 0-.893-.456 11.41 11.41 0 0 0-1.168-.342l-.737-.2a2.266 2.266 0 0 1-.436-.19 1.028 1.028 0 0 1-.335-.287.644.644 0 0 1-.119-.387.762.762 0 0 1 .355-.624 1.567 1.567 0 0 1 .949-.265 1.411 1.411 0 0 1 .919.241 2 2 0 0 1 .491.682 1.9 1.9 0 0 0 .3.454.572.572 0 0 0 .42.142.639.639 0 0 0 .5-.235.792.792 0 0 0 .2-.529 1.492 1.492 0 0 0-.159-.648 2 2 0 0 0-.5-.63 2.589 2.589 0 0 0-.857-.479 3.707 3.707 0 0 0-1.219-.179 3.967 3.967 0 0 0-1.536.272 2.182 2.182 0 0 0-1 .78 2.01 2.01 0 0 0-.348 1.163 1.947 1.947 0 0 0 .329 1.151 2.266 2.266 0 0 0 .888.728 7.109 7.109 0 0 0 1.378.464 9.452 9.452 0 0 1 .976.271 1.441 1.441 0 0 1 .588.364.842.842 0 0 1 .221.611.96.96 0 0 1-.416.795 1.751 1.751 0 0 1-1.1.323 1.671 1.671 0 0 1-.794-.16 1.243 1.243 0 0 1-.466-.4 3.125 3.125 0 0 1-.311-.617 1.289 1.289 0 0 0-.281-.489.6.6 0 0 0-.43-.168.682.682 0 0 0-.514.213.727.727 0 0 0-.2.515 1.968 1.968 0 0 0 .329 1.037 2.527 2.527 0 0 0 .852.849 3.588 3.588 0 0 0 1.871.442 3.832 3.832 0 0 0 1.635-.323 2.325 2.325 0 0 0 1.412-2.187 2.243 2.243 0 0 0-.214-1.017zm-79.875 26.302l-.112-.245-.186-.155c-.244-.2-1.237.014-1.57-.305a2.1 2.1 0 0 1-.342-1.2 3.645 3.645 0 0 0-.377-1.51 4.635 4.635 0 0 0-3.242-2.427H101.2a4.342 4.342 0 0 0-4.2 4.45v4.078a4.337 4.337 0 0 0 4.2 4.441h4.823c2.31 0 3.942-2 3.955-4.441l.026-2.483zm-9.137-2.852h3.316a1 1 0 0 1 0 1.976h-3.316a1 1 0 0 1 0-1.976zM106.182 50h-5.361a1.027 1.027 0 0 1 0-2.006h5.361a1.028 1.028 0 0 1 0 2.006zM19 26a5 5 0 0 1-5-5v-8a1 1 0 1 1 2 0v4.022A4.993 4.993 0 1 1 19 26zm0-8a3 3 0 1 0 3 3 3 3 0 0 0-3-3zm58.707-3.02l.312-1.98a12.292 12.292 0 0 0-2.116.018 2.25 2.25 0 0 0-1.427.784A2.462 2.462 0 0 0 74 15.4v1.592l-2-.014v2.007l2 .008v6h2.013v-6h1.718l.31-2.007h-2.029v-1.509a.561.561 0 0 1 .671-.486l1.024-.011zM24.5 53h0-11.844 0A4.791 4.791 0 0 1 8 48.124a4.864 4.864 0 0 1 3.011-4.536l-.042-.432A5.072 5.072 0 0 1 15.953 38a4.928 4.928 0 0 1 4.081 2.208 3.988 3.988 0 0 1 1.309-.239 4.2 4.2 0 0 1 4.106 3.8A4.686 4.686 0 0 1 24.5 53zm-6-10a3.5 3.5 0 1 0 3.5 3.5 3.5 3.5 0 0 0-3.5-3.5zm1.078 4h-1.156a.422.422 0 0 1-.422-.422v-.033-2.091a.454.454 0 0 1 .454-.454h.029a.454.454 0 0 1 .454.454v1.7h.64a.423.423 0 1 1 .001.846z"/><path d="M75.5 41a3.316 3.316 0 1 1-3.3 3.316A3.308 3.308 0 0 1 75.5 41zm0 1.968a1.354 1.354 0 1 1-1.347 1.353 1.351 1.351 0 0 1 1.347-1.353zm0 5.647a5.27 5.27 0 0 0 2-.453 1.434 1.434 0 0 1 .835-.285 1.416 1.416 0 0 1 .958 1.01 1.945 1.945 0 0 1-1.27 1.223 8.189 8.189 0 0 1-1.194.217l1.251 1.416A2.637 2.637 0 0 1 79.022 53a1.346 1.346 0 0 1-1 1.01 4.232 4.232 0 0 1-1.4-1.094l-1.146-1.106-1.084 1.085a4.355 4.355 0 0 1-1.368 1.114 1.443 1.443 0 0 1-1.061-1.166 6.339 6.339 0 0 1 1.24-1.494l.953-1.043a5.058 5.058 0 0 1-1.076-.209 1.939 1.939 0 0 1-1.359-1.237 1.111 1.111 0 0 1 .991-1 3.056 3.056 0 0 1 .744.262 7.286 7.286 0 0 0 2.044.493zM46.994 15.77v3.257a.339.339 0 0 0 .426.351c.3-.021.978-2.8 1.279-3.406a1.931 1.931 0 0 1 .738-.826.61.61 0 0 1 .363-.156h2.878a.464.464 0 0 1 .3.727c-.226.5-2.155 3.61-2.255 3.736a1.312 1.312 0 0 0-.238.55 1.2 1.2 0 0 0 .313.627l1.966 2.155a1.2 1.2 0 0 1 .276.576.764.764 0 0 1-.8.614h-2.342a2.788 2.788 0 0 1-.952-.565c-.225-.2-1.059-1.152-1.184-1.277a.406.406 0 0 0-.351-.145c-.15 0-.434.015-.422.584a2 2 0 0 1-.238 1.139.99.99 0 0 1-.737.275 5 5 0 0 1-2.913-.727c-1.575-.978-3.367-3.589-4.2-5.254a6.521 6.521 0 0 1-.9-2.715c.05-.176.05-.3.226-.3h2.606a.849.849 0 0 1 .351.326c.075.1.647 1.813.822 2.113s1.038 1.95 1.506 1.95a.6.6 0 0 0 .474-.7v-2.18a1.94 1.94 0 0 0-.978-1 1.261 1.261 0 0 1 .929-.499c.6-.026 2.1-.026 2.43.024a.78.78 0 0 1 .627.746zm-4 33.197h2.939c-.224 1.633-1.122 2.124-2.595 2.124-2.513 0-3.229-2-3.229-3.649 0-2.049.76-3.469 2.872-3.469a2.942 2.942 0 0 1 2.712 1.527l1.809-.976a4.725 4.725 0 0 0-4.466-2.513c-3.3 0-5.071 2.087-5.071 5.4 0 3.329 2.044 5.57 5.342 5.57A4.244 4.244 0 0 0 47.1 50.9a6.183 6.183 0 0 0 .939-3.639v-.273h-5.045v1.979zM56 49h-2v2h-2v-2h-2v-2h2v-2h2v2h2v2zm132.742-1.55a2.386 2.386 0 0 0-2.434-2.4h-.049a2.373 2.373 0 0 0-2.316 2.607 2.318 2.318 0 0 0 2.31 2.531 2.469 2.469 0 0 0 2.492-2.433zm-2.476-3.743a3.664 3.664 0 0 1 2.619 1.175h0a.555.555 0 0 1 .532-.6h.083a.606.606 0 0 1 .582.627v5.355a.334.334 0 0 0 .559.307c.826-.884 1.813-4.542-.514-6.662a5.4 5.4 0 0 0-6.626-.541 5.338 5.338 0 0 0-1.675 6.254 4.982 4.982 0 0 0 6.2 2.681c.96-.4 1.4.948.407 1.39a6.517 6.517 0 0 1-7.658-2.932 6.586 6.586 0 0 1 10.616-7.64c2.231 2.427 2.1 6.972-.075 8.738a1.513 1.513 0 0 1-2.442-1.148l-.01-.382a3.589 3.589 0 0 1-2.6 1.124 3.875 3.875 0 0 1 0-7.742h0M131 55a8 8 0 1 1 8-8 8 8 0 0 1-8 8zm5.534-5.683A7.341 7.341 0 0 0 134.5 49a7.673 7.673 0 0 0-.888.066 15.546 15.546 0 0 1 .369 3.111 6 6 0 0 0 2.553-2.862zm-4.555 3.583c0-.135.021-.266.021-.4a13.417 13.417 0 0 0-.335-2.924 7.553 7.553 0 0 0-3.386 2.744A5.936 5.936 0 0 0 131 53a6.026 6.026 0 0 0 .979-.1zm-5.288-1.739a9.525 9.525 0 0 1 4.4-3.51q-.236-.6-.526-1.181a9.213 9.213 0 0 1-5.533.194c-.005.113-.032.219-.032.336a5.971 5.971 0 0 0 1.691 4.161zm.589-8.838a6 6 0 0 0-1.815 2.358A7.328 7.328 0 0 0 127.5 45a7.466 7.466 0 0 0 2-.285 13.836 13.836 0 0 0-2.22-2.392zm1.879-1.007a15.872 15.872 0 0 1 2.215 2.584 7.606 7.606 0 0 0 2.334-2.228 5.66 5.66 0 0 0-4.549-.356zm6.166 1.54a9.559 9.559 0 0 1-2.933 2.777 15.651 15.651 0 0 1 .637 1.487 9.114 9.114 0 0 1 3.937.213c.006-.113.034-.22.034-.333a5.969 5.969 0 0 0-1.675-4.144zm27.71 9.423a8.973 8.973 0 0 1-.767.6c-2.921 2.41-6.4 2.809-8.044.9a4.292 4.292 0 0 1-.7-3.831 9.336 9.336 0 0 1 1.726-3.6l-.43-.6a9.93 9.93 0 0 0-2.375 4.181l-.416.006a10.054 10.054 0 0 1 2.313-4.719l-1.574-2.116c-.452-.6.015-1.69 1.043-2.446s2.228-.886 2.68-.291l1.472 1.934c3.091-1.9 6.487-2.089 8.093-.233 1.986 2.297.575 6.886-3.021 10.215zm-4.986-4.715l.426-.28-3.033-4.056-.612.463zm-1.975-6.7a3.958 3.958 0 0 0-1.423.561 6.022 6.022 0 0 0-1.3 1.332l.577.816a6.594 6.594 0 0 1 1.215-1.325 4.545 4.545 0 0 1 1.4-.7zm.86 1.368l-.623.447 3.119 3.951.433-.269zm4.06 4.048l.579 4.468.248-.475c.044-.039.207-.166.208-.167 2.428-2.18 3.025-5.2 1.9-6.015-1.044-1.208-2.625-1.02-4.721-.213zm4.507-3.346c-1.471-1.7-4.3-1.718-7.125-.165l.435.643a6.057 6.057 0 0 1 4.727-.77c.03.008.06.016.089.026l-.006.005a2.605 2.605 0 0 1 1.042.719c1.4 1.622.322 4.464-2.3 6.933-.045.037-.09.073-.136.108h0l-.622.479-.039-.062-1.153-.488a.5.5 0 0 1-.1-.041l-3.044-1.289-1.6-2.107a7.873 7.873 0 0 0-1.6 3.305 3.39 3.39 0 0 0 .906 2.966c1.532 1.774 4.279 1.307 6.937-.968a11.943 11.943 0 0 0 2.949-3.373h.009c1.369-2.455 1.946-4.402.63-5.921z"/></svg>