<?xml version="1.0" encoding="iso-8859-1"?><!DOCTYPE svg PUBLIC "-//W3C//DTD SVG 1.1//EN" "http://www.w3.org/Graphics/SVG/1.1/DTD/svg11.dtd"><svg viewBox="0 0 625.778 625.778" xmlns="http://www.w3.org/2000/svg" xmlns:xlink="http://www.w3.org/1999/xlink"><style>:root>svg{display:none}:root>svg:target{display:block}</style><svg viewBox="0 0 451.846 451.847" id="arrow-to-right" xmlns="http://www.w3.org/2000/svg"><path d="M345.441 248.292L151.154 442.573c-12.359 12.365-32.397 12.365-44.75 0-12.354-12.354-12.354-32.391 0-44.744L278.318 225.92 106.409 54.017c-12.354-12.359-12.354-32.394 0-44.748 12.354-12.359 32.391-12.359 44.75 0l194.287 194.284c6.177 6.18 9.262 14.271 9.262 22.366 0 8.099-3.091 16.196-9.267 22.373z"/></svg><svg viewBox="0 -52 496 496" id="car" xmlns="http://www.w3.org/2000/svg"><path d="M469.754 212.52l-65.305-11.84-36.289-46.903c-1.695-2.53-3.726-4.746-5.879-6.777C366 135.742 368 124.023 368 112 368 50.238 317.762 0 256 0S144 50.238 144 112c0 13.367 2.457 26.328 7.031 38.664L95.68 205.078c-2.313 2.266-5.313 3.832-8.399 4.41l-61.043 11.04C11.04 223.312 0 236.542 0 252v60c0 17.648 14.352 32 32 32h40.64c3.903 27.09 27.208 48 55.36 48s51.457-20.91 55.36-48h137.28c3.903 27.09 27.208 48 55.36 48s51.457-20.91 55.36-48H464c17.648 0 32-14.352 32-32v-68c0-15.457-11.04-28.688-26.246-31.48zM256 16c52.937 0 96 43.063 96 96 0 11.992-2.184 23.664-6.504 34.734-4.07 10.61-10.055 20.356-17.808 29.008C309.55 196.238 283.425 208 256 208c-29.168 0-56.414-13.031-74.734-35.742a95.024 95.024 0 01-13.578-22.656l-.016-.043C162.574 137.71 160 125.079 160 112c0-52.938 43.063-96 96-96zm-77.45 296H240v16h-56.633c-.8-5.574-2.406-10.969-4.816-16zm-11.534-16a55.493 55.493 0 00-30.77-15.313c1.074-19.757 6.496-39.128 15.832-56.687H240v72zm8.601-106.16c6.848 7.09 14.48 13.176 22.766 18.16h-36.305c.387-.535.73-1.07 1.121-1.602zM256 224h96v32.07c-13.2.57-25.945 4.785-37.04 12.258-10.433 7.04-18.702 16.527-24.167 27.672H256zm57.52-16c6.945-4.168 13.417-9.121 19.351-14.754L343.97 208zM29.105 236.273l24.672-4.464-1.297 5.144c-1.992 8.024-7.878 14.399-15.718 17.055L16 260.91V252c0-7.727 5.512-14.344 13.105-15.727zM16 312v-34.223l25.848-8.593c13.074-4.43 22.84-15.032 26.152-28.336l3.07-12.16 19.121-3.458c6.2-1.168 12.13-4.253 16.704-8.726l51.16-50.328a111.4 111.4 0 006.992 11.113l-14.672 19.55c-3.75 5.063-7.117 10.169-10.023 15.169-12.063 20.992-18.918 44.566-20.094 68.594-24.586 3.43-44.067 22.847-47.61 47.398H32c-8.824 0-16-7.176-16-16zm112 64c-22.055 0-40-17.945-40-40s17.945-40 40-40c11.383 0 22.2 4.848 29.754 13.375C164.359 316.665 168 326.129 168 336c0 22.055-17.945 40-40 40zm248 0c-22.055 0-40-17.945-40-40s17.945-40 40-40 40 17.945 40 40-17.945 40-40 40zm16-104c0-2.137.824-4.113 2.457-5.703 1.43-1.473 3.406-2.297 5.543-2.297h16c4.414 0 8 3.586 8 8 0 2.137-.824 4.113-2.457 5.703-1.43 1.473-3.406 2.297-5.543 2.297h-16c-4.414 0-8-3.586-8-8zm72 56h-32.64a55.88 55.88 0 00-16.247-32H416c6.496 0 12.527-2.527 16.855-6.984C437.473 284.527 440 278.496 440 272c0-13.23-10.77-24-24-24h-16c-6.496 0-12.527 2.527-16.855 6.984C378.527 259.473 376 265.504 376 272c0 2.848.586 5.543 1.496 8.07-.504-.007-.992-.07-1.496-.07-28.152 0-51.457 20.91-55.36 48H256v-16h45.434l2.007-5.047c4.094-10.32 11.176-19.09 20.48-25.36 9.294-6.273 20.087-9.593 31.2-9.593H368v-58.672l-24.145-32.098c4.45-5.59 8.329-11.527 11.579-17.796l40.117 51.886 71.336 12.946A15.987 15.987 0 01480 244v4h-24v16h24v16h-24v16h24v16c0 8.824-7.176 16-16 16zm0 0"/><path d="M128 312c-13.23 0-24 10.77-24 24s10.77 24 24 24 24-10.77 24-24-10.77-24-24-24zm0 32c-4.414 0-8-3.586-8-8s3.586-8 8-8 8 3.586 8 8-3.586 8-8 8zm0 0M376 312c-13.23 0-24 10.77-24 24s10.77 24 24 24 24-10.77 24-24-10.77-24-24-24zm0 32c-4.414 0-8-3.586-8-8s3.586-8 8-8 8 3.586 8 8-3.586 8-8 8zm0 0M216 184h80c8.824 0 16-7.176 16-16v-64c0-8.824-7.176-16-16-16V72c0-10.586-4.145-20.625-11.742-28.336C276.625 36.144 266.586 32 256 32c-22.055 0-40 17.945-40 40v16c-8.824 0-16 7.176-16 16v64c0 8.824 7.176 16 16 16zm16-112c0-13.23 10.77-24 24-24 6.36 0 12.406 2.504 16.945 6.977C277.496 59.594 280 65.64 280 72v16h-48zm-16 32h80v64h-32v-24h-16v24h-32zm0 0"/><path d="M248 112h16v16h-16zm0 0M192 240h32v16h-32zm0 0M304 240h32v16h-32zm0 0"/></svg><svg viewBox="0 0 496 496" id="car-insurance" xmlns="http://www.w3.org/2000/svg"><path d="M475.36 326.078l-35.391-5.031c-2.25-.336-4.184-1.504-5.465-3.293l-26.375-36.938c-7.45-10.527-19.64-16.816-32.61-16.816h-31.582C378.81 241.305 400 202.832 400 160.48v-5.167l37.656-37.657-11.312-11.312L400 132.688v-7.778l-28.168 9.356c-11.672 3.949-25.594.656-34.328-8.082L336 124.688V0H100.688L0 100.688V496h336v-80h16.809c3.718 18.23 19.87 32 39.191 32s35.473-13.77 39.191-32H472c13.23 0 24-10.77 24-24v-42.16c0-11.953-8.648-21.945-20.64-23.762zm-98.438-176.637L384 147.09v1.597l-56 56-18.344-18.343-11.312 11.312L328 227.312l55.336-55.335c-3.695 35.046-24.07 65.91-55.336 83-34.648-18.938-56-54.786-56-94.497v-13.39l7.031 2.336c16.578 5.62 35.969 1.52 48.969-10.196 13 11.708 32.496 15.77 48.922 10.211zM96 27.312V96H27.312zM320 480H16V112h96V16h208v108.688l-1.496 1.496c-8.734 8.738-22.535 12.074-34.383 8.062L256 124.91v35.563c0 42.351 21.191 80.824 56.062 103.52h-38.94c-13.427 0-25.876 6.655-33.306 17.816l-19.28 28.953a8.088 8.088 0 01-4.36 3.246l-63.078 18.894C142.87 336.04 136 345.282 136 355.922V392c0 13.23 10.77 24 24 24h40.809c3.718 18.23 19.87 32 39.191 32s35.473-13.77 39.191-32H320zm-104-72c0-13.23 10.77-24 24-24s24 10.77 24 24-10.77 24-24 24-24-10.77-24-24zm176 24c-13.23 0-24-10.77-24-24s10.77-24 24-24 24 10.77 24 24-10.77 24-24 24zm88-40c0 4.414-3.594 8-8 8h-40.809c-3.718-18.23-19.87-32-39.191-32s-35.473 13.77-39.191 32H279.19c-3.718-18.23-19.87-32-39.191-32s-35.473 13.77-39.191 32H160c-4.406 0-8-3.586-8-8v-36.078c0-3.555 2.328-6.649 5.734-7.7l63.114-18.902c5.41-1.68 9.906-5.023 13.007-9.687l19.282-28.953c4.457-6.688 11.925-10.68 19.984-10.68H375.52c7.785 0 15.097 3.762 19.57 10.09l26.383 36.941c3.757 5.29 9.648 8.871 16.199 9.848l35.36 5.023c4.038.618 6.968 3.953 6.968 7.938zm0 0"/><path d="M232 400h16v16h-16zm0 0M384 400h16v16h-16zm0 0M267.055 296l-24 48h161.89l-24-48zm1.89 32l8-16h94.11l8 16zm0 0M304 32H128v80h176zm-16 64H144V48h144zm0 0"/><path d="M208 64h16v16h-16zm0 0M240 64h16v16h-16zm0 0M176 64h16v16h-16zm0 0M32 128h184v16H32zm0 0M32 192h184v16H32zm0 0M144 160h72v16h-72zm0 0M32 160h96v16H32zm0 0M32 224h184v16H32zm0 0M32 256h184v16H32zm0 0M153.328 436.8c-3.84-8.784-9.098-20.8-21.328-20.8-12.246 0-17.504 12.04-21.336 20.832-1.328 3.055-4.871 11.168-6.586 11.168-1.82 0-5.277-7.879-6.758-11.246C93.48 427.992 88.215 416 76 416c-12.23 0-17.488 12.016-21.328 20.8C53.199 440.153 49.77 448 48 448H32v16h16c12.23 0 17.488-12.016 21.328-20.8C70.801 439.847 74.23 432 76 432s5.2 7.832 6.664 11.176C86.52 451.969 91.81 464 104.078 464c12.188 0 17.426-12 21.25-20.77 1.465-3.359 4.895-11.23 6.672-11.23 1.77 0 5.2 7.848 6.672 11.2 3.84 8.784 9.098 20.8 21.328 20.8h16v-16h-16c-1.77 0-5.2-7.848-6.672-11.2zm0 0M192 448h16v16h-16zm0 0"/></svg><svg viewBox="0 0 311.112 311.112" id="director" xmlns="http://www.w3.org/2000/svg"><path d="M237.888 188.533l-43.444-9.656V165.15c16.789-12.117 27.778-31.794 27.778-54.039V76.989c9.556-2.483 16.667-11.106 16.667-21.433V44.444c0-12.256-9.967-22.222-22.222-22.222h-5.556c-1.85 0-3.606.372-5.272.933C193.143 8.433 175.116 0 155.555 0s-37.589 8.433-50.283 23.156c-1.667-.561-3.422-.933-5.272-.933h-5.556c-12.256 0-22.222 9.967-22.222 22.222v11.111c0 10.328 7.111 18.95 16.667 21.433v34.122c0 22.244 10.989 41.922 27.778 54.039v13.728l-43.444 9.65c-33.3 7.406-56.556 36.389-56.556 70.506v52.078h277.778v-52.078c-.002-34.117-23.257-63.101-56.557-70.501zM72.221 300H27.777v-40.967c0-27.678 18.117-51.322 44.444-58.739V300zm127.1-108.656l-8.478 38.144-26.2-18.711 25.711-21.428 8.967 1.995zm-43.766 12.539l-27.778-23.15v-9.094c8.466 3.9 17.855 6.139 27.778 6.139 9.922 0 19.311-2.239 27.778-6.139v9.094l-27.778 23.15zm49.999-164.994c0-.828.206-1.617.561-2.339.061-.133.172-.233.244-.356a5.608 5.608 0 011.294-1.544c.956-.783 2.128-1.317 3.456-1.317h5.556c6.128 0 11.112 4.984 11.112 11.111v11.111c0 6.128-4.983 11.111-11.111 11.111h-5.556a5.562 5.562 0 01-5.556-5.556V38.889zM94.442 66.666c-6.126.001-11.11-4.983-11.11-11.11V44.444c0-6.128 4.983-11.111 11.111-11.111h5.556c1.328 0 2.5.533 3.461 1.311.539.439.961.967 1.294 1.544.072.128.178.228.244.356.35.728.556 1.517.556 2.344V61.11a5.561 5.561 0 01-5.556 5.556h-5.556zm5.557 44.445V77.778c9.189 0 16.667-7.478 16.667-16.667V38.889c0-1.022-.122-2.017-.306-3-.05-.278-.117-.544-.178-.817-.178-.744-.4-1.467-.672-2.172-.089-.233-.161-.467-.261-.694a16.2 16.2 0 00-1.244-2.328c10.561-11.978 25.467-18.767 41.55-18.767s30.989 6.789 41.55 18.772a16.102 16.102 0 00-1.244 2.328c-.1.222-.172.456-.261.689a16.41 16.41 0 00-.678 2.172c-.067.272-.128.539-.178.817-.178.983-.3 1.978-.3 3v22.222c0 9.189 7.478 16.667 16.667 16.667v33.333c0 30.633-24.922 55.556-55.556 55.556-30.634 0-55.556-24.923-55.556-55.556zm20.761 78.239l25.711 21.428-26.2 18.711-8.478-38.144 8.967-1.995zM94.443 300H83.332V197.667l11.111-2.472V300zm111.112 0h-100v-85.5l7.511 33.794 42.489-30.356 42.489 30.356 7.511-33.794V300zm22.222 0h-11.111V195.2l11.111 2.472V300zm55.555 0h-44.444v-99.706c26.328 7.417 44.444 31.067 44.444 58.739V300z"/><path d="M166.666 130.556c0 7.661 6.233 13.889 13.889 13.889h8.333v-11.111h-8.333a2.783 2.783 0 01-2.778-2.778c0-7.661-6.233-13.889-13.889-13.889h-16.666c-7.656 0-13.889 6.228-13.889 13.889a2.782 2.782 0 01-2.778 2.778h-8.333v11.111h8.333c7.656 0 13.889-6.228 13.889-13.889a2.782 2.782 0 012.778-2.778h16.666a2.783 2.783 0 012.778 2.778zM149.716 83.333h11.672c1.361 9.4 9.394 16.667 19.161 16.667 10.722 0 19.444-8.722 19.444-19.444s-8.717-19.444-19.439-19.444c-7.728 0-14.361 4.567-17.494 11.111h-15.011c-3.133-6.544-9.767-11.111-17.494-11.111-10.722 0-19.444 8.722-19.444 19.444S119.832 100 130.555 100c9.766 0 17.8-7.267 19.161-16.667zm30.839-11.111c4.594 0 8.333 3.739 8.333 8.333s-3.739 8.333-8.333 8.333-8.333-3.739-8.333-8.333 3.738-8.333 8.333-8.333zm-58.334 8.334c0-4.594 3.739-8.333 8.333-8.333s8.333 3.739 8.333 8.333-3.739 8.333-8.333 8.333-8.333-3.739-8.333-8.333z"/><circle cx="155.555" cy="238.889" r="5.556"/><circle cx="155.555" cy="261.111" r="5.556"/><circle cx="155.555" cy="283.333" r="5.556"/></svg><svg viewBox="0 0 31.999 31.999" id="dollars-money" xmlns="http://www.w3.org/2000/svg"><path d="M31.999 21.768a3.097 3.097 0 00-3.092-3.093c-.074 0-.146.013-.218.017.306-.724.474-1.53.474-2.415 0-2.065-2.64-6.802-4.363-8.368-.944.203-1.948.313-2.989.313-1.074 0-2.104-.117-3.074-.332-1.702 1.375-4.683 6.258-4.683 8.388 0 .359.033.701.092 1.027a23.085 23.085 0 00-1.57-.055c-1.379 0-2.707.149-3.963.424-.037-.457-.063-.736-.063-.736H.36s-.359 3-.359 6.697S.36 30.33.36 30.33h8.189s.072-.783.15-1.894c1.219-.205 2.467.117 3.908 1.013 1.828 1.192 4.08 1.901 6.518 1.901 2.472 0 4.595-.729 6.36-1.955l.002.002a.752.752 0 00.068-.054c.5-.352.973-.741 1.414-1.168.346-.354.815-.807 1.518-1.495 2.361-2.32 2.652-2.779 2.652-2.779h-.009a3.05 3.05 0 00.869-2.133zM19.831 13.72c.076-.184.185-.348.319-.49.14-.145.302-.264.488-.357a1.97 1.97 0 01.612-.191v-.537h1.138v.619c.168.047.319.113.455.193v-.242h1.139v1.705h-1.146a3.838 3.838 0 00-.269-.271 1.39 1.39 0 00-.276-.195 1.407 1.407 0 00-.319-.117 1.826 1.826 0 00-.41-.041c-.228 0-.401.055-.524.162-.121.109-.183.225-.183.35 0 .352.379.584 1.14.699.471.07.846.186 1.125.344.276.16.489.333.637.521.146.186.24.371.281.553.041.183.062.328.062.441 0 .217-.043.42-.131.604a1.518 1.518 0 01-.357.492 1.812 1.812 0 01-.538.342 2.18 2.18 0 01-.681.154v.512h-1.138v-.666c-.062-.027-.116-.053-.176-.078-.058-.021-.11-.049-.166-.076v.25h-1.138v-1.705h1.138c.099.109.192.201.289.281.094.078.19.145.293.193.101.053.211.09.332.115.123.022.262.034.42.034a.962.962 0 00.512-.125c.136-.084.203-.192.203-.329a.464.464 0 00-.106-.298.944.944 0 00-.271-.215 1.66 1.66 0 00-.364-.141 4.538 4.538 0 00-.396-.086c-.461-.07-.828-.181-1.104-.326a2.183 2.183 0 01-.638-.479 1.343 1.343 0 01-.293-.533 1.932 1.932 0 01-.069-.482 1.435 1.435 0 01.11-.584zm10.289 9.259c-.414.41-2.164 2.215-2.64 2.681-1.228 1.205-1.801 1.77-2.069 2.082l-.007-.005a7.65 7.65 0 01-.586.468c-1.584 1.071-3.557 1.713-5.694 1.713-2.158 0-4.146-.65-5.736-1.738h-.01c-1.377-.838-2.99-1.354-4.586-1.197.064-1.102.115-2.309.115-3.346 0-1.443-.1-3.211-.191-4.57a17.593 17.593 0 013.857-.426c4.117 0 7.76 1.361 9.991 3.494.263.293.429.678.429 1.102a1.66 1.66 0 01-1.658 1.658c-.032 0-.065-.01-.103-.012l-.004.018c-.853-.029-2.188-.387-4.442-1.25l-.512 1.344c2.383.906 3.953 1.316 5.066 1.344v-.01a3.098 3.098 0 002.955-2.201v.002c.482-.801 2.287-2.469 3.312-3.381v.002c.012-.014.021-.021.029-.029.189-.168.354-.312.471-.413.217-.138.441-.195.799-.195a1.66 1.66 0 011.656 1.658c.002.455-.201.885-.442 1.207zM19.128 6.874s1.39.33 2.752.33c1.361 0 2.257-.193 2.257-.193.791-.389 2.569-4.49 1.526-5.936-1.166-1.613-3.115 1.893-4.015 1.533-.896-.359-2.808-2.229-4.069-1.467-1.096.663.687 5.092 1.549 5.733z"/></svg><svg viewBox="0 -8 496 496" id="maintenance" xmlns="http://www.w3.org/2000/svg"><path d="M144.008 300.832c-28.961-16.8-67.086-16.785-96-.016-14.617 8.407-26.785 20.567-35.168 35.168C4.44 350.464 0 367.063 0 384s4.441 33.535 12.824 47.984a95.48 95.48 0 0035.168 35.176C62.472 475.56 79.07 480 96 480s33.527-4.441 47.992-12.824c14.617-8.406 26.785-20.567 35.168-35.168C187.56 417.535 192 400.938 192 384s-4.441-33.535-12.824-47.984a95.56 95.56 0 00-35.168-35.184zm-1.336 148.031l-7.742-13.422-13.86 8 7.73 13.399c-7.84 3.48-16.226 5.633-24.8 6.465V448H88v15.297c-8.566-.824-16.953-2.977-24.8-6.465l7.73-13.398-13.86-8-7.742 13.421a79.295 79.295 0 01-18.191-18.19l13.422-7.743-8-13.86-13.422 7.747c-3.528-7.825-5.754-16.184-6.617-24.809H32v-16H16.52a79.56 79.56 0 016.617-24.816l13.422 7.746 8-13.86-13.422-7.742a79.45 79.45 0 0118.191-18.191l7.742 13.422 13.86-8-7.746-13.422A79.659 79.659 0 0188 304.52V320h16v-15.48a79.56 79.56 0 0124.816 6.617l-7.746 13.422 13.86 8 7.742-13.422a79.295 79.295 0 0118.191 18.191l-13.422 7.742 8 13.86 13.422-7.746c3.528 7.824 5.754 16.191 6.617 24.816H160v16h15.48a79.56 79.56 0 01-6.617 24.816l-13.422-7.746-8 13.86 13.422 7.742a79.295 79.295 0 01-18.191 18.191zm0 0"/><path d="M96 344c-22.055 0-40 17.945-40 40s17.945 40 40 40 40-17.945 40-40-17.945-40-40-40zm0 64c-13.23 0-24-10.77-24-24s10.77-24 24-24 24 10.77 24 24-10.77 24-24 24zm0 0"/><path d="M88 376h16v16H88zm0 0M495.719 239.281a58.3 58.3 0 00-.84-5.57l-15.2-76.078c-4.128-20.656-19.382-36.738-38.695-42.856C450.207 106.023 456 93.687 456 80V48c0-12.77-4.969-24.824-14.055-34.008C432.825 4.97 420.77 0 408 0c-26.473 0-48 21.527-48 48h-24v16h24v16c0 20.71 13.207 38.344 31.625 45.063l-72.45 72.449-73.167-11.696-27.848-62.695 39.2-63.305C274.335 32.375 303.733 16 336 16V0c-37.84 0-72.328 19.207-92.238 51.39l-69.563 112.32L56 51.735C42.258 38.641 26.113 32 8 32H0v290.77l13.863-14.922C35.336 284.727 64.496 272 96 272c7.434 0 14.871.727 22.105 2.168 41.52 8.36 75.344 40.184 86.168 81.121 2.47 9.2 3.727 18.863 3.727 28.711v24h174.246l-5.101 25.586c-.137.629-.52 1.156-1.04 1.414l-22.234 11.129c-6.086 3.039-9.871 9.144-9.871 15.95 0 9.882 8.04 17.921 17.922 17.921H480c8.824 0 16-7.176 16-16V244.8c0-1.863-.09-3.64-.281-5.519zM395.367 424l3.52-17.625c5.37-2.598 9.113-8.094 9.113-14.613l-2.398-79.922c0-9.55-5.48-17.848-13.602-21.703v-18.32a233.155 233.155 0 0026.566-2.391C427.441 312.793 432 357.266 432 401.762V424zm38.938-157.441c15.351-3.207 30.437-7.872 44.941-14.102l.754-.32V424h-32v-22.238c0-45.57-4.664-91.106-13.695-135.203zM464 160.777l14.871 74.453-5.95 2.54a220.657 220.657 0 01-49.495 14.687c-10.762 1.984-21.899 2.95-33.137 3.262-.883-4.078-1.992-8.11-3.57-12-2.414-6.168-5.758-11.918-9.903-17.23l62.192-62.192c5.719-5.711 8.992-13.602 8.992-21.656 0-2.512-.398-4.946-.984-7.32 8.511 5.863 14.847 14.777 16.984 25.456zM376 270.56v15.847l-72-13.094V256h70.023a55.597 55.597 0 011.704 8.969c.21 1.863.273 3.726.273 5.59zm45.586-141.903c2.262.64 4.375 1.895 6.117 3.64A14.518 14.518 0 01432 142.642c0 3.84-1.566 7.605-4.297 10.343l-62.137 62.137c-8.023-6.648-17.277-11.367-27.367-14.008l68.824-68.824c3.747-3.746 9.168-5.336 14.563-3.633zM408 16a32.047 32.047 0 0122.633 9.305C436.672 31.415 440 39.48 440 48h-64c0-17.648 14.352-32 32-32zm-32 64V64h64v16c0 17.648-14.352 32-32 32s-32-14.352-32-32zm-168.047 59.602l19.2 43.207-39.458-6.313-1.632-1.543zM44.977 63.328L163.937 176h-25.265l-29.406-22.063-78.243-78.234c-4.28-4.262-9.398-7.43-15.023-9.414V48.594c10.68 1.62 20.39 6.558 28.977 14.734zM32 164c0 1.344.137 2.68.328 4H16V84.047c1.313.875 2.566 1.832 3.703 2.96L68.687 136H60c-15.441 0-28 12.559-28 28zm28-12h24.688l13.656 13.656L112.078 176H60a12.106 12.106 0 01-8.535-3.535 8.64 8.64 0 01-1.082-1.29C48.848 169.146 48 166.595 48 164c0-6.617 5.383-12 12-12zM16 284.098V184h24.406c5.258 5.145 12.196 8 19.594 8h67.809a200.715 200.715 0 01-13.625 65.434C108.16 256.586 102.09 256 96 256c-29.145 0-57.434 10.07-80 28.098zm114.105-23.496c8.254-22 12.856-45.008 13.704-68.602h39.574l145.441 23.258c11.992 1.91 22.809 7.543 31.29 16.316 2.566 2.64 4.831 5.45 6.773 8.426H288v46.68l94.785 17.222c3.95.61 6.817 3.946 6.824 8.176l.95 31.922h-173c-13.32-40.383-46.48-72-87.454-83.398zM221.735 360h169.304l.961 32H224v-8c0-8.145-.777-16.184-2.266-24zM360 462.078c0-.687.398-1.324 1.016-1.637l22.242-11.129c3.894-1.953 6.84-5.25 8.496-9.312h30.351l-12.242 6.129c-6.078 3.039-9.863 9.144-9.863 15.95V464h-38.078c-1.113 0-1.922-.809-1.922-1.922zM416 464v-1.922c0-.687.398-1.324 1.016-1.637l21.113-10.562c4.176-2.086 7.144-5.672 8.68-9.871H480v24h-64zm0 0"/></svg><svg viewBox="0 0 512.002 512.002" id="next" xmlns="http://www.w3.org/2000/svg"><path d="M388.425 241.951L151.609 5.79c-7.759-7.733-20.321-7.72-28.067.04-7.74 7.759-7.72 20.328.04 28.067l222.72 222.105-222.728 222.104c-7.759 7.74-7.779 20.301-.04 28.061a19.8 19.8 0 0014.057 5.835 19.79 19.79 0 0014.017-5.795l236.817-236.155c3.737-3.718 5.834-8.778 5.834-14.05s-2.103-10.326-5.834-14.051z"/></svg><svg viewBox="0 0 512 512" id="official-documents" xmlns="http://www.w3.org/2000/svg"><circle cx="216.013" cy="336" r="10"/><path d="M40.013 136v40c0 5.523 4.477 10 10 10h289c5.522 0 10-4.477 10-10v-40c0-5.523-4.478-10-10-10h-289c-5.523 0-10 4.477-10 10zm106 10h183v20h-183zm-86 0h66v20h-66zM50.013 226h289c5.522 0 10-4.477 10-10s-4.478-10-10-10h-289c-5.523 0-10 4.477-10 10s4.477 10 10 10zM50.013 266h289c5.522 0 10-4.477 10-10s-4.478-10-10-10h-289c-5.523 0-10 4.477-10 10s4.477 10 10 10zM50.013 306h166c5.523 0 10-4.477 10-10s-4.477-10-10-10h-166c-5.523 0-10 4.477-10 10s4.477 10 10 10zM50.013 346h126c5.523 0 10-4.477 10-10s-4.477-10-10-10h-126c-5.523 0-10 4.477-10 10s4.477 10 10 10zM136.013 426h51.006c4.646 22.795 24.847 40 48.994 40 27.57 0 50-22.43 50-50s-22.43-50-50-50c-24.146 0-44.348 17.205-48.994 40h-51.006c-5.523 0-10 4.477-10 10s4.477 10 10 10zm100-20h-28.28c4.128-11.639 15.243-20 28.28-20 16.542 0 30 13.458 30 30s-13.458 30-30 30c-13.036 0-24.152-8.361-28.28-20h28.28c5.522 0 10-4.477 10-10s-4.477-10-10-10zM339.013 80c5.522 0 10-4.477 10-10s-4.478-10-10-10h-20c-5.522 0-10 4.477-10 10s4.478 10 10 10zM279.013 80c5.522 0 10-4.477 10-10s-4.478-10-10-10h-20c-5.522 0-10 4.477-10 10s4.478 10 10 10zM219.013 80c5.523 0 10-4.477 10-10s-4.477-10-10-10h-20c-5.523 0-10 4.477-10 10s4.477 10 10 10z"/><circle cx="196.013" cy="502" r="10"/><path d="M10.013 512h141c5.523 0 10-4.477 10-10s-4.477-10-10-10h-131V100h70c5.523 0 10-4.477 10-10V20h269v282.652c-4.536 5.367-8.772 10.079-12.437 13.839l-21.2-21.2c-19.535-19.548-51.173-19.557-70.715-.002l-14.14 14.14c-3.905 3.905-3.905 10.237 0 14.142l118.491 118.491V492h-128c-5.523 0-10 4.477-10 10s4.477 10 10 10h138c5.522 0 10-4.477 10-10v-39.938l2.929 2.929c3.905 3.902 10.238 3.905 14.143 0l14.14-14.14c19.538-19.538 19.542-51.171 0-70.712l-21.197-21.198c18.969-18.483 60.694-49.184 82.617-58.732 30.772-13.395 41.876-55.234 15.621-81.489-26.057-26.07-67.71-15.477-81.356 15.383-5.118 11.566-15.721 27.828-26.896 43.067V10c0-5.523-4.478-10-10-10h-289c-2.727 0-5.29 1.15-7.071 2.929l-80 80A10.047 10.047 0 00.013 90v412c0 5.523 4.477 10 10 10zm396.068-117.719c11.723 11.722 11.725 30.703 0 42.428l-7.068 7.069L271.735 316.5l7.071-7.071c11.722-11.728 30.697-11.734 42.426.002zm-19.23-81.778c17.33-20.901 38.692-50.747 47.348-70.309 7.773-17.577 32.476-25.787 48.923-9.333 16.454 16.454 8.095 41.369-9.462 49.011-24.883 10.838-68.192 42.8-88.776 62.926l-14.165-14.165c4.741-4.851 10.28-11.07 16.132-18.13zM80.013 34.142V80H34.155z"/></svg><svg viewBox="0 0 469.333 469.333" id="plus" xmlns="http://www.w3.org/2000/svg"><path d="M437.332 192h-160V32c0-17.664-14.336-32-32-32H224c-17.664 0-32 14.336-32 32v160H32c-17.664 0-32 14.336-32 32v21.332c0 17.664 14.336 32 32 32h160v160c0 17.664 14.336 32 32 32h21.332c17.664 0 32-14.336 32-32v-160h160c17.664 0 32-14.336 32-32V224c0-17.664-14.336-32-32-32zm0 0"/></svg><svg viewBox="0 0 612 612" id="speed-meter" xmlns="http://www.w3.org/2000/svg"><path d="M175.205 239.62a7.428 7.428 0 00-1.833-5.381l-58.84-66.941a7.429 7.429 0 00-10.483-.675c-27.037 23.766-49.479 51.794-66.706 83.305a7.422 7.422 0 002.954 10.078l78.205 42.748a7.426 7.426 0 0010.08-2.954c11.386-20.828 26.229-39.359 44.114-55.08a7.401 7.401 0 002.509-5.1zM201.462 214.829a7.426 7.426 0 0010.041 3.081 199.993 199.993 0 0167.025-21.561 7.428 7.428 0 006.362-8.358l-11.979-88.316c-.551-4.064-4.304-6.909-8.358-6.362-35.708 4.843-69.949 15.857-101.772 32.736a7.429 7.429 0 00-3.082 10.041l41.763 78.739zM105.785 334.345l-86.017-23.338a7.433 7.433 0 00-9.113 5.224C3.586 342.295 0 369.309 0 396.523c0 4.657.111 9.329.342 14.284a7.426 7.426 0 007.764 7.075l89.031-4.113a7.421 7.421 0 007.075-7.762c-.155-3.341-.23-6.444-.23-9.484 0-18.02 2.365-35.873 7.029-53.066a7.432 7.432 0 00-5.226-9.112zM438.731 120.745c-32.411-15.625-67.04-25.308-102.925-28.786a7.387 7.387 0 00-5.439 1.659 7.423 7.423 0 00-2.671 5.018l-8.593 88.712a7.427 7.427 0 006.677 8.108c23.652 2.291 46.463 8.669 67.8 18.954a7.417 7.417 0 005.675.322 7.426 7.426 0 004.24-3.786l38.7-80.287a7.422 7.422 0 00-3.464-9.914zM569.642 245.337a7.426 7.426 0 00-.828-5.624c-18.432-30.835-41.933-57.983-69.848-80.686a7.444 7.444 0 00-5.447-1.627 7.43 7.43 0 00-5 2.702l-56.237 69.144a7.426 7.426 0 001.077 10.449c18.47 15.019 34.015 32.975 46.205 53.369a7.428 7.428 0 0010.186 2.564l76.501-45.728a7.438 7.438 0 003.391-4.563zM598.044 304.939c-1.228-3.915-5.397-6.096-9.308-4.867l-85.048 26.648a7.425 7.425 0 00-4.867 9.306c6.104 19.486 9.199 39.839 9.199 60.494a204.4 204.4 0 01-.23 9.484 7.42 7.42 0 001.93 5.347 7.42 7.42 0 005.145 2.415l89.031 4.113a7.429 7.429 0 007.764-7.075c.229-4.955.342-9.627.342-14.284-.002-31.214-4.696-62.026-13.958-91.581zM305.737 380.755a71.42 71.42 0 00-3.824.11l-120.65-71.185a7.638 7.638 0 00-9.176 1.065 7.643 7.643 0 00-1.456 9.121l65.815 123.355a70.97 70.97 0 00-.371 7.195c0 18.608 7.246 36.101 20.403 49.258 13.158 13.158 30.652 20.404 49.26 20.404 18.608 0 36.101-7.248 49.258-20.404 13.158-13.157 20.403-30.65 20.403-49.258 0-18.608-7.246-36.101-20.403-49.258-13.157-13.157-30.652-20.403-49.259-20.403z"/></svg><svg viewBox="0 0 39.055 39.054" id="sports-car" xmlns="http://www.w3.org/2000/svg"><path d="M38.831 14.26a1.005 1.005 0 00-.775-.369h-3.801c-.938-2.474-2.16-4.898-3.549-5.813-4.805-3.161-17.55-3.161-22.355 0-1.39.916-2.607 3.343-3.55 5.813H1a.997.997 0 00-.775.369.995.995 0 00-.204.834l.563 2.728a1 1 0 00.979.797h1.126c-1.087 1.254-1.614 2.833-1.621 4.413-.007 1.952.734 3.716 2.089 4.964.015.013.03.022.044.035v3.817c0 .827.672 1.5 1.5 1.5h3.506c.828 0 1.5-.673 1.5-1.5v-1.534h19.641v1.534c0 .827.672 1.5 1.5 1.5h3.506c.826 0 1.5-.673 1.5-1.5v-3.742c1.438-1.317 2.125-3.129 2.134-4.938.006-1.634-.545-3.271-1.696-4.551h1.201a.996.996 0 00.979-.798l.564-2.727a1.008 1.008 0 00-.205-.832zM9.998 10.583c3.83-2.521 15.229-2.521 19.057 0 .744.488 1.701 2.461 2.578 4.877H7.422c.875-2.415 1.832-4.387 2.576-4.877zM5.512 23.408a2.95 2.95 0 115.901.001 2.95 2.95 0 01-5.901-.001zm25.119 2.951a2.951 2.951 0 110-5.903 2.951 2.951 0 010 5.903z"/></svg><svg viewBox="0 0 512 512" id="star" xmlns="http://www.w3.org/2000/svg"><path d="M512 197.816l-186.039-12.231L255.898 9.569l-70.063 176.016L0 197.816l142.534 121.026-46.772 183.589L255.898 401.21l160.137 101.221-46.772-183.589z"/></svg><svg viewBox="0 0 64 64" id="tow-truck" xmlns="http://www.w3.org/2000/svg"><path d="M63.002 48.006a1 1 0 01-1-1V34.011a1 1 0 112 0v12.995a1 1 0 01-1 1z"/><path d="M63.003 35.011a1 1 0 01-.896-.553l-5-10.002a1 1 0 011.789-.895l5 10.002a1 1 0 01-.893 1.448zM63.002 45.004H52.006a1 1 0 110-2h10.996a1 1 0 110 2zM63.002 48.006h-5.797a1 1 0 110-2h5.797a1 1 0 110 2zM43.005 42.001H4.997a1 1 0 110-2h38.008a1 1 0 110 2z"/><path d="M58.002 25.009H43.003a1 1 0 110-2h14.999a1 1 0 110 2z"/><path d="M43.005 50.002a1 1 0 01-1-1l-.002-24.993a1 1 0 112 0l.002 24.993a1 1 0 01-1 1zM58.023 35.011a.066.066 0 01-.02 0H47.005a1 1 0 01-1-1v-6a1 1 0 011-1h7.997c.379 0 .725.214.895.553l2.921 5.839a1.001 1.001 0 01-.795 1.608zm-10.018-2h8.381l-2.002-4h-6.379zM52.006 57.002c-3.859 0-7-3.141-7-7s3.141-7 7-7 7 3.141 7 7-3.141 7-7 7zm0-12c-2.757 0-5 2.243-5 5s2.243 5 5 5 5-2.243 5-5-2.243-5-5-5zM27.007 57.002c-3.859 0-7-3.141-7-7s3.141-7 7-7 7 3.141 7 7-3.141 7-7 7zm0-12c-2.757 0-5 2.243-5 5s2.243 5 5 5 5-2.243 5-5-2.243-5-5-5z"/><path d="M13.013 57.002c-3.859 0-7-3.141-7-7s3.141-7 7-7 7 3.141 7 7-3.141 7-7 7zm0-12c-2.757 0-5 2.243-5 5s2.243 5 5 5 5-2.243 5-5-2.243-5-5-5z"/><path d="M13.013 53.002c-1.654 0-3-1.346-3-3s1.346-3 3-3 3 1.346 3 3-1.346 3-3 3zm0-4a1 1 0 100 2 1 1 0 000-2zM27.007 53.002c-1.654 0-3-1.346-3-3s1.346-3 3-3 3 1.346 3 3-1.346 3-3 3zm0-4a1 1 0 100 2 1 1 0 000-2zM52.004 53.002c-1.654 0-3-1.346-3-3s1.346-3 3-3 3 1.346 3 3-1.346 3-3 3zm0-4a1 1 0 100 2 1 1 0 000-2zM21.091 50.002h-2.154a1 1 0 110-2h2.154a1 1 0 110 2zM46.089 50.002H32.923a1 1 0 110-2h13.166a1 1 0 110 2zM7.097 50.002H1.994a1 1 0 110-2h5.103a1 1 0 110 2z"/><path d="M1.994 50.002a1.001 1.001 0 01-.937-1.351L4.06 40.65a1.001 1.001 0 011.873.703L2.93 49.354a1 1 0 01-.936.648zM47.999 38.009h-1a1 1 0 110-2h1a1 1 0 110 2zM35.992 42.034H18.984a1 1 0 01-1-1v-5.031a1 1 0 011-1h17.008a1 1 0 011 1v5.031a1 1 0 01-1 1zm-16.008-2h15.008v-3.031H19.984z"/><path d="M22.987 37.003a1 1 0 01-1-1v-6.001a1 1 0 112 0v6.001a1 1 0 01-1 1zM31.989 37.003a1 1 0 01-1-1v-7.001a1 1 0 112 0v7.001a1 1 0 01-1 1z"/><path d="M22.987 31.002a.998.998 0 01-.669-.257L2.325 12.743a1 1 0 011.338-1.486l19.993 18.002a1 1 0 01-.669 1.743zM31.988 30.002c-.203 0-.408-.062-.586-.19L2.407 8.808a.999.999 0 01-.222-1.396.998.998 0 011.396-.224l28.995 21.004a1 1 0 01-.588 1.81z"/><path d="M2.998 32.004a1 1 0 01-1-1L1.994 7.998a1 1 0 112 0l.004 23.006a1 1 0 01-1 1z"/><g><path d="M2.998 37.006c-1.654 0-3-1.347-3-3.001a1 1 0 112 0 1.001 1.001 0 002 0c0-1.343-1.438-2.102-1.453-2.109a1.004 1.004 0 01-.436-1.343.997.997 0 011.336-.442c.104.052 2.553 1.307 2.553 3.895 0 1.653-1.346 3-3 3z"/></g><g><path d="M3.998 30.005h-2a1 1 0 110-2h2a1 1 0 110 2z"/></g><g><path d="M19.985 37.003a1 1 0 01-.92-.609L13.078 22.3a1 1 0 111.84-.783l5.987 14.095a.999.999 0 01-.92 1.391z"/></g><g><path d="M38.997 42.034a1 1 0 01-1-1V28.01a1 1 0 112 0v13.024a1 1 0 01-1 1z"/></g><g><path d="M42.995 29.01h-3.998a1 1 0 110-2h3.998a1 1 0 110 2z"/></g></svg><svg viewBox="0 0 24 24" id="viber" xmlns="http://www.w3.org/2000/svg"><path d="M23.155 13.893c.716-6.027-.344-9.832-2.256-11.553l.001-.001C17.814-.6 7.392-1.035 3.7 2.471 2.042 4.186 1.458 6.703 1.394 9.819c-.064 3.117-.14 8.956 5.301 10.54H6.7l-.005 2.419s-.037.98.589 1.177c.716.232 1.04-.223 3.267-2.883 3.724.323 6.584-.417 6.909-.525.752-.252 5.007-.815 5.695-6.654zM10.918 19.37s-2.357 2.939-3.09 3.702c-.24.248-.503.225-.499-.267 0-.323.018-4.016.018-4.016-4.613-1.322-4.341-6.294-4.291-8.895.05-2.602.526-4.733 1.93-6.168C8.225.689 17.362 1.368 19.69 3.556c2.846 2.523 1.833 9.651 1.839 9.894-.585 4.874-4.033 5.183-4.667 5.394-.271.09-2.786.737-5.944.526z"/><path d="M12.222 4.297c-.385 0-.385.6 0 .605 2.987.023 5.447 2.105 5.474 5.924 0 .403.59.398.585-.005h-.001c-.032-4.115-2.718-6.501-6.058-6.524z"/><path d="M16.151 10.193c-.009.398.58.417.585.014.049-2.269-1.35-4.138-3.979-4.335-.385-.028-.425.577-.041.605 2.28.173 3.481 1.729 3.435 3.716zM15.521 12.774c-.494-.286-.997-.108-1.205.173l-.435.563c-.221.286-.634.248-.634.248-3.014-.797-3.82-3.951-3.82-3.951s-.037-.427.239-.656l.544-.45c.272-.216.444-.736.167-1.247-.74-1.337-1.237-1.798-1.49-2.152-.266-.333-.666-.408-1.082-.183h-.009c-.865.506-1.812 1.453-1.509 2.428.517 1.028 1.467 4.305 4.495 6.781 1.423 1.171 3.675 2.371 4.631 2.648l.009.014c.942.314 1.858-.67 2.347-1.561v-.007c.217-.431.145-.839-.172-1.106-.562-.548-1.41-1.153-2.076-1.542z"/><path d="M13.169 8.104c.961.056 1.427.558 1.477 1.589.018.403.603.375.585-.028-.064-1.346-.766-2.096-2.03-2.166-.385-.023-.421.582-.032.605z"/></svg><svg viewBox="0 0 24 24" id="whatsapp" xmlns="http://www.w3.org/2000/svg"><path d="M17.507 14.307l-.009.075c-2.199-1.096-2.429-1.242-2.713-.816-.197.295-.771.964-.944 1.162-.175.195-.349.21-.646.075-.3-.15-1.263-.465-2.403-1.485-.888-.795-1.484-1.77-1.66-2.07-.293-.506.32-.578.878-1.634.1-.21.049-.375-.025-.524-.075-.15-.672-1.62-.922-2.206-.24-.584-.487-.51-.672-.51-.576-.05-.997-.042-1.368.344-1.614 1.774-1.207 3.604.174 5.55 2.714 3.552 4.16 4.206 6.804 5.114.714.227 1.365.195 1.88.121.574-.091 1.767-.721 2.016-1.426.255-.705.255-1.29.18-1.425-.074-.135-.27-.21-.57-.345z"/><path d="M20.52 3.449C12.831-3.984.106 1.407.101 11.893c0 2.096.549 4.14 1.595 5.945L0 24l6.335-1.652c7.905 4.27 17.661-1.4 17.665-10.449 0-3.176-1.24-6.165-3.495-8.411zm1.482 8.417c-.006 7.633-8.385 12.4-15.012 8.504l-.36-.214-3.75.975 1.005-3.645-.239-.375c-4.124-6.565.614-15.145 8.426-15.145a9.865 9.865 0 017.021 2.91 9.788 9.788 0 012.909 6.99z"/></svg><svg viewBox="0 0 512 512" id="writing" xmlns="http://www.w3.org/2000/svg"><path d="M478.179 161.787c-10.956-10.964-28.373-11.653-40.151-2.056-1.703 1.388-.384.165-26.317 26.098l67.316 67.317 24.193-23.891c11.697-11.697 11.697-30.729 0-42.427zM273.667 325.148l-39.598 84.854a15 15 0 0019.936 19.936l84.854-39.599c3.357-1.567-6.806 7.945 118.822-116.114l-67.183-67.184C265.94 331.6 275.265 321.725 273.667 325.148z"/><path d="M364.13 408.771a44.89 44.89 0 01-12.585 8.755l-84.854 39.599c-16.686 7.787-37.071 4.822-50.848-8.958-13.331-13.33-16.932-33.765-8.96-50.851l39.599-84.856a44.884 44.884 0 018.957-12.787l127.567-127.567V45c0-24.813-20.187-45-45-45h-293c-24.813 0-45 20.187-45 45v422c0 24.813 20.187 45 45 45h293c24.813 0 45-20.187 45-45v-76.871zM80.007 97h224c8.284 0 15 6.716 15 15s-6.716 15-15 15h-224c-8.284 0-15-6.716-15-15s6.716-15 15-15zm0 80h176c8.284 0 15 6.716 15 15s-6.716 15-15 15h-176c-8.284 0-15-6.716-15-15s6.716-15 15-15zm-15 95c0-8.284 6.716-15 15-15h128c8.284 0 15 6.716 15 15s-6.716 15-15 15h-128c-8.284 0-15-6.716-15-15z"/></svg></svg>