<svg xmlns="http://www.w3.org/2000/svg" xmlns:xlink="http://www.w3.org/1999/xlink" width="600" height="600" xmlns:v="https://vecta.io/nano"><style><![CDATA[.f{fill:#fff}.g{fill-rule:evenodd}.h{fill:#222}.i{fill:none}.j{stroke-linecap:round}.k{stroke-linejoin:round}.l{stroke-width:2}.m{opacity:.7}.n{fill:#969ba5}]]></style><defs><linearGradient id="A" x1="257.803" y1="69" x2="266.197" y2="51" gradientUnits="userSpaceOnUse"><stop offset="0" stop-color="#ff8c3f"/><stop offset=".496" stop-color="#ea1083"/><stop offset="1" stop-color="#6e13c5"/></linearGradient><path id="B" d="M197.691 20.668l-5.791 6.056a1 1 0 0 1-1.415 0l-3.213-3.024a1 1 0 1 1 1.414-1.414l2.468 2.324 5.123-5.355a1 1 0 0 1 1.414 1.413z"/><path id="C" d="M213.691 30.667l-5.791 6.057a1 1 0 0 1-1.415 0l-3.213-3.024a1 1 0 1 1 1.414-1.414l2.468 2.324 5.123-5.355a1 1 0 0 1 1.414 1.412z"/></defs><circle cx="175" cy="273" r="59" class="f"/><path d="M198,273l-38,18.008V254.992Z" fill="#333" class="g"/><circle cx="32.5" cy="302.5" r="29.5" class="f"/><path d="M44 302.5l-19 9v-18z" fill="#333" class="g"/><circle cx="87" cy="316" r="15" class="f"/><g class="g"><path d="M93.942,316L83,321.318V310.682Z" fill="#333"/><path d="M270.7 192.7a1.038 1.038 0 0 1-1.469 0l-3.511-3.511a10.064 10.064 0 1 1 1.571-1.368l3.409 3.41a1.038 1.038 0 0 1 0 1.469zM260 173a8 8 0 1 1-8 8 8 8 0 0 1 8-8zm3 9h-2v2a1 1 0 0 1-2 0v-2h-2a1 1 0 0 1 0-2h2v-2a1 1 0 0 1 2 0v2h2a1 1 0 0 1 0 2z" class="f"/></g><path d="M252 156h17m-12-6l-6 6 6 6" stroke="#fff" class="i j k l"/><g class="g h"><path d="M306.7 319.7a1.038 1.038 0 0 1-1.469 0l-3.09-3.09a7.055 7.055 0 1 1 1.469-1.469l3.09 3.09a1.038 1.038 0 0 1 0 1.469zM298 306a5 5 0 1 1-5 5 5 5 0 0 1 5-5zm2 6h-1v1a1 1 0 0 1-2 0v-1h-1a1 1 0 0 1 0-2h1v-1a1 1 0 0 1 2 0v1h1a1 1 0 0 1 0 2zM190 200v-42.047L200.954 147H232v53h-42zm2-2v-39.3l9.7-9.7H230v49h-38z"/><path d="M199 163h24a1 1 0 0 1 0 2h-24a1 1 0 0 1 0-2zm-9-3v-2h11v-11h2v13h-13zm9 8h24a1 1 0 1 1 0 2h-24a1 1 0 1 1 0-2zm0 5h16a1 1 0 0 1 0 2h-16a1 1 0 0 1 0-2zm19.707 10.694l-8 7.992a1.013 1.013 0 0 1-1.427 0l-4.993-4.983a1.008 1.008 0 0 1 1.426-1.424l4.287 4.274 7.286-7.281a1.006 1.006 0 0 1 1.421 1.422zM405 269v-49.124l8.9-8.876H453v58h-48zm2-2v-46.04l7.789-7.96H451v54h-44z"/><path d="M416 227h26a1 1 0 0 1 0 2h-26a1 1 0 0 1 0-2zm-11-5v-2h9v-9h2v11h-11zm11 10h26a1 1 0 0 1 0 2h-26a1 1 0 0 1 0-2zm0 5h26a1 1 0 0 1 0 2h-26a1 1 0 0 1 0-2zm0 5h16a1 1 0 0 1 0 2h-16a1 1 0 0 1 0-2zm0 14h8a1 1 0 0 1 0 2h-8a1 1 0 0 1 0-2zm26.706-4.3l-6.994 6.991a1.016 1.016 0 0 1-1.43 0l-2.993-2.983a1.008 1.008 0 1 1 1.426-1.424l2.285 2.269 6.284-6.281a1.008 1.008 0 1 1 1.422 1.428z"/></g><circle cx="261" cy="243" r="12" class="h"/><path d="M266.745 240.642l-5.947 5.947a.907.907 0 0 1-.082.123.97.97 0 0 1-.707.281.95.95 0 0 1-.695-.278c-.019-.019-.026-.045-.044-.066l-3.009-2.994a.963.963 0 0 1 0-1.371.982.982 0 0 1 1.382 0l2.378 2.366 5.366-5.365a.96.96 0 1 1 1.358 1.357zM2.5 337a1.5 1.5 0 1 1-1.5 1.5 1.5 1.5 0 0 1 1.5-1.5zm7 0a1.5 1.5 0 1 1-1.5 1.5 1.5 1.5 0 0 1 1.5-1.5zm7 0a1.5 1.5 0 1 1-1.5 1.5 1.5 1.5 0 0 1 1.5-1.5zm0-1a1.5 1.5 0 0 0 0-3H19v3h-2.5zm-1.5-1.5a1.5 1.5 0 0 0 1.5 1.5h-7a1.5 1.5 0 1 0 0-3h7a1.5 1.5 0 0 0-1.5 1.5zm-7 0a1.5 1.5 0 0 0 1.5 1.5h-7a1.5 1.5 0 0 0 0-3h7a1.5 1.5 0 0 0-1.5 1.5zm-7 0a1.5 1.5 0 0 0 1.5 1.5H0v-3h2.5a1.5 1.5 0 0 0-1.5 1.5z" class="f g"/><path d="M20.014,333h4.973L22.5,335.984Z" class="g"/><path d="M20.014 337h4.973l-2.487 2.984zm11 1h4.973l-2.487 2.984z" class="f g"/><path d="M39.013 341h4.973l-2.486-3.015zm8-3h4.973l-2.486 3.015z" class="g"/><circle cx="261" cy="216" r="12" fill="#999"/><rect x="256" y="215" width="10" height="2" rx="1" class="f"/><g class="g"><path d="M262.537 262.406l9.182 14.884a1.107 1.107 0 0 1-.331 1.709h-18.754a1.05 1.05 0 0 1-.33-1.709l9.182-14.884c.566-.553.484-.553 1.051 0z" fill="#d21515"/><path d="M261,268h2v5h-2v-5Zm0,6h2v2h-2v-2Z" class="f"/></g><circle cx="30" cy="162" r="9" fill="#5bb147"/><g class="f g"><path d="M29.646 164.828l4.243-4.242a1 1 0 0 0-1.414-1.414l-4.243 4.242a1 1 0 0 0 1.414 1.414z"/><path d="M29.646 164.828a1 1 0 0 0 0-1.414l-2.121-2.121a1 1 0 1 0-1.414 1.414l2.121 2.121a1 1 0 0 0 1.414 0z"/></g><path d="M268.977 320.409l-1.3 6.258v.021a1.464 1.464 0 0 1-1.749 1.343l-7.395-.031a.808.808 0 0 1-.5-.493l-.02-7 .087-.027a4.507 4.507 0 0 0 2.892-4.117v-2.345a4.218 4.218 0 0 1 2.141.158 2.279 2.279 0 0 1 .878 1.86l-.094 2.391a.59.59 0 0 0 .6.582h3.281a1.189 1.189 0 0 1 1.2 1.174 1.833 1.833 0 0 1-.021.226z" stroke="#222" class="i k l"/><path d="M255 319h1a0 0 0 0 1 0 0v10a0 0 0 0 1 0 0h-1a1 1 0 0 1-1-1v-8a1 1 0 0 1 1-1z" class="h"/><g class="g"><path d="M469.059 1.685a2.784 2.784 0 0 0-3.005-.431L285.611 85.023a2.777 2.777 0 0 0-.053 5.013l51.065 25.039a2.78 2.78 0 0 0 2.889-.269l49.65-37.077-38.977 40.059a2.778 2.778 0 0 0-.779 2.149l3.881 50.5a2.782 2.782 0 0 0 4.877 1.6l27.1-31.382 33.506 16a2.782 2.782 0 0 0 3.851-1.675L469.878 4.606a2.775 2.775 0 0 0-.819-2.921z" class="f"/><path d="M55 164a1 1 0 0 1-1-1v-1.612l-3.285 3.285a1 1 0 1 1-1.414-1.414L52.559 160H51a1 1 0 0 1 0-2h4.5a.5.5 0 0 1 .5.5v4.5a1 1 0 0 1-1 1zm-2 4a1 1 0 0 1-1 1h-6a1 1 0 0 1-1-1v-6a1 1 0 0 1 2 0v5h5a1 1 0 0 1 1 1z" class="h"/></g><path d="M24 177a12 12 0 0 1 12 12m-12-7a7 7 0 0 1 7 7" stroke="#222" class="i j k l"/><circle cx="25" cy="188" r="2" class="h"/><path d="M24 116h33a4 4 0 0 1 4 4v22a4 4 0 0 1-4 4H24a4 4 0 0 1-4-4v-22a4 4 0 0 1 4-4zm0 2h33a2 2 0 0 1 2 2v22a2 2 0 0 1-2 2H24a2 2 0 0 1-2-2v-22a2 2 0 0 1 2-2z" fill="#fbfbfb" class="g m"/><g stroke="#fff" class="i j k l"><path d="M26.141,139.821l8.9-8.519m10.627-.221,9.206,8.805" class="m"/><path d="M22.947,119.087l17.507,17.151L58.04,119.02" class="m"/></g><g class="f"><rect x="3" y="124" width="13" height="2" rx="1" class="m"/><rect x="6" y="130" width="10" height="2" rx="1" opacity=".77"/><rect x="9" y="136" width="7" height="2" rx="1" class="m"/></g><g class="g"><path d="M3,164h8v2H3v-2Zm8,10H8v3H6v-3H3v-2H6v-3H8v3h3v2Z" fill="#999"/><path d="M3 180h8v2H3v-2zm8 9H8v3H6v-3H3v-2h3v-3h2v3h3v2zm2-35l-10 5v-10z" class="f"/><path d="M156 196a3 3 0 0 1-3 3H69a3 3 0 0 1-3-3v-54a2.983 2.983 0 0 1 1.005-2.226l-.034-.022.3-.194.142-.093L80 131.244v2.611L68.989 141a1 1 0 0 0-.889.577l-.009.006h0A.989.989 0 0 0 68 142v54a1 1 0 0 0 1 1h84a1 1 0 0 0 1-1v-54a.985.985 0 0 0-.095-.413h0-.007a1 1 0 0 0-.89-.578L142 133.855v-2.611l12.588 8.22.146.095.295.193-.034.022A2.982 2.982 0 0 1 156 142v54zm-30.724-73L111 113.734 96.724 123h-4.1L111 111l18.374 12h-4.1z" class="n"/></g><path d="M77 188l21.754-19.871m24.2-.2l22.041 20.033m9.405-47.178L122.877 168H99.123l-31.661-27.331" stroke="#969ba5" class="i j k l"/><g class="g"><path d="M141 151.97V124H81v28.315l-2-1.81V122h64v28.15zm-10.267-7.263l-4.055 4.055a1 1 0 0 1-1.414 0l-1.415-1.414-1.414 1.414a1 1 0 0 1-1.414 0l-1.414-1.414-1.415 1.414a1 1 0 0 1-1.414 0l-1.414-1.414-1.414 1.414a1 1 0 0 1-.707.293h-1.48a11 11 0 1 1 .015-10.079h14.192a1 1 0 0 1 .708.293l4.055 4.024a1 1 0 0 1 0 1.414zM102 135a9 9 0 1 0 9 9 9 9 0 0 0-9-9zm23.556 5.976h-12.987a10.837 10.837 0 0 1-.008 6.079h.267l1.829-1.828a1 1 0 0 1 1.414 0l1.414 1.414 1.415-1.414a1 1 0 0 1 1.414 0l1.414 1.414 1.414-1.414a1 1 0 0 1 1.414 0l1.414 1.414 2.641-2.641zm-27.163 6.56a5 5 0 1 1 7.071 0 5.007 5.007 0 0 1-7.071 0zm5.657-5.657a3 3 0 1 0 0 4.242 3 3 0 0 0 0-4.242z" class="n"/><path d="M174.691 190.667l-5.95 6.057a1 1 0 0 1-1.414 0l-3.055-3.024a1 1 0 1 1 1.414-1.414l2.314 2.323 5.28-5.355a1 1 0 0 1 1.411 1.413z" class="f"/><path d="M174 147a2.964 2.964 0 0 1-1.848-.654l-3.264 1.885a2.694 2.694 0 0 1 0 1.554l3.255 1.88A2.988 2.988 0 1 1 171 154a3 3 0 0 1 .072-.641l-3.331-1.924a3 3 0 1 1 .013-4.859l3.323-1.919A3 3 0 1 1 174 147zm0 8.187a1.188 1.188 0 1 0-1.188-1.187 1.186 1.186 0 0 0 1.188 1.187zm-8-7.375a1.188 1.188 0 1 0 1.187 1.188 1.188 1.188 0 0 0-1.187-1.188zm8-5a1.188 1.188 0 1 0 1.187 1.188 1.188 1.188 0 0 0-1.187-1.188z" class="h"/><path d="M163,166h10v2H163v-2Zm11,13h-4v4h-2v-4h-4v-2h4v-4h2v4h4v2Z" class="f"/><path d="M203,46h10v2H203V46Zm-16,2h4v4h2V48h4V46h-4V42h-2v4h-4v2Z" class="h"/></g><g class="i j k l"><path d="M241 23h-18m12-6l6 6-6 6" stroke="#fff"/><path d="M241 7h-18m12-6l6 6-6 6m-34-6h18m-12-6l-6 6 6 6" stroke="#222"/></g><g class="g"><path d="M138.5 12H136v2h-8v-2h-2.5a1.5 1.5 0 0 1-1.5-1.5v-5a1.5 1.5 0 0 1 1.5-1.5h2.5V0h8v4h2.5a1.5 1.5 0 0 1 1.5 1.5v5a1.5 1.5 0 0 1-1.5 1.5zm-8.5 0h4v-2h-4v2zm4-10h-4v2h4V2zm4 4h-12v4h2V8h8v2h2V6z" fill="#252525"/><path d="M155.5 12H153v2h-8v-2h-2.5a1.5 1.5 0 0 1-1.5-1.5v-5a1.5 1.5 0 0 1 1.5-1.5h2.5V0h8v4h2.5a1.5 1.5 0 0 1 1.5 1.5v5a1.5 1.5 0 0 1-1.5 1.5zm-8.5 0h4v-2h-4v2zm4-10h-4v2h4V2zm4 4h-12v4h2V8h8v2h2V6z" class="f"/><path d="M0,3H8V5H0V3ZM17,5H14V8H12V5H9V3h3V0h2V3h3V5Z" fill="#95abba"/><path d="M0,12H8v2H0V12Zm17,2H14v3H12V14H9V12h3V9h2v3h3v2Z" fill="#151a25"/><path d="M28.691 1.667L22.9 7.724a1 1 0 0 1-1.414 0L18.272 4.7a1 1 0 0 1 1.414-1.414l2.467 2.323L27.277.254a1 1 0 1 1 1.414 1.413z" class="f"/><use xlink:href="#B" fill="#1fad57"/><use xlink:href="#B" x="16" fill="#ff8707"/><use xlink:href="#C" fill="#00a4f1"/><use xlink:href="#C" x="-16" fill="#d9002a"/><path d="M47.7 15.7a1.039 1.039 0 0 1-1.469 0l-3.09-3.09A6.982 6.982 0 1 1 46 7a6.94 6.94 0 0 1-1.386 4.145l3.09 3.09A1.039 1.039 0 0 1 47.7 15.7zM39 2a5 5 0 1 0 5 5 5 5 0 0 0-5-5z" class="f"/><path d="M199.7 15.7a1.038 1.038 0 0 1-1.469 0l-3.09-3.09A6.982 6.982 0 1 1 198 7a6.941 6.941 0 0 1-1.386 4.145l3.09 3.09a1.038 1.038 0 0 1-.004 1.465zM191 2a5 5 0 1 0 5 5 5 5 0 0 0-5-5zM93.414 7l5.3 5.3a1.001 1.001 0 0 1-1.414 1.417L92 8.414l-5.3 5.3a1.001 1.001 0 1 1-1.418-1.414l5.3-5.3-5.3-5.3A1.003 1.003 0 1 1 86.7.282l5.3 5.3 5.3-5.3A1.003 1.003 0 0 1 98.718 1.7z" class="h"/><g class="f"><path d="M59.7,9.282L65.718,15.3A1,1,0,0,1,64.3,16.717L58.282,10.7A1,1,0,1,1,59.7,9.282Z"/><path d="M58.282,15.3L64.3,9.282A1,1,0,0,1,65.718,10.7L59.7,16.717A1,1,0,0,1,58.282,15.3Z"/></g><g class="n"><path d="M59.7.282L65.718 6.3A1 1 0 0 1 64.3 7.717L58.282 1.7A1 1 0 0 1 59.7.282z"/><path d="M58.282 6.3L64.3.282A1 1 0 0 1 65.718 1.7L59.7 7.717A1 1 0 0 1 58.282 6.3z"/></g><path d="M49,0h8V8H49V0Zm5.414,4,2.3,2.3A1,1,0,1,1,55.3,7.717L53,5.414l-2.3,2.3A1,1,0,0,1,49.282,6.3l2.3-2.3-2.3-2.3A1,1,0,0,1,50.7.282l2.3,2.3,2.3-2.3A1,1,0,1,1,56.718,1.7Z" class="f"/><path d="M170,0h13V12H170V0Zm1,1h11V3H171V1Zm0,4h11V7H171V5Zm0,4h8v2h-8V9Z" fill="#fefdfd"/><path d="M52 194a10.935 10.935 0 0 1-5.5-1.484A10.935 10.935 0 0 1 41 194h-.008a11.017 11.017 0 0 0 2.375-4.2A10.993 10.993 0 1 1 52 194zm-3-11.5a.5.5 0 0 0-.5-.5h-1a.5.5 0 0 0-.5.5v1a.5.5 0 0 0 .5.5h1a.5.5 0 0 0 .5-.5v-1zm4 0a.5.5 0 0 0-.5-.5h-1a.5.5 0 0 0-.5.5v1a.5.5 0 0 0 .5.5h1a.5.5 0 0 0 .5-.5v-1zm4 0a.5.5 0 0 0-.5-.5h-1a.5.5 0 0 0-.5.5v1a.5.5 0 0 0 .5.5h1a.5.5 0 0 0 .5-.5v-1z" class="f"/></g><circle cx="262" cy="60" r="18" class="f"/><g class="g"><path d="M257 51h10a4 4 0 0 1 4 4v10a4 4 0 0 1-4 4h-10a4 4 0 0 1-4-4V55a4 4 0 0 1 4-4zm0 2h10a2 2 0 0 1 2 2v10a2 2 0 0 1-2 2h-10a2 2 0 0 1-2-2V55a2 2 0 0 1 2-2zm5 3a4 4 0 1 1-4 4 4 4 0 0 1 4-4zm0 2a2 2 0 1 1-2 2 2 2 0 0 1 2-2zm4.5-4h1a.5.5 0 0 1 .5.5v1a.5.5 0 0 1-.5.5h-1a.5.5 0 0 1-.5-.5v-1a.5.5 0 0 1 .5-.5z" fill="url(#A)"/><path d="M243,39V0h38V39H243Zm28-28a1,1,0,1,0-2,0v1.642A9.34,9.34,0,0,0,262.5,10a9.5,9.5,0,1,0,8.258,14.17l-1.732-1A7.51,7.51,0,1,1,267.571,14H266a1,1,0,1,0,0,2h5V11Z" class="f"/></g><g class="i k l"><circle cx="136" cy="63" r="44" stroke="#77d03c"/><g stroke="#969ba5"><circle cx="45" cy="63" r="44"/><circle cx="38" cy="77" r="6"/><circle cx="54" cy="77" r="6"/><path d="M22,46h6l5,21H59l3-14H30" class="j"/></g><path d="M115,63l14,14,28.009-28.013" stroke="#77d03c" class="j"/></g><g class="g"><path d="M249,83h14.364L271,90.7V110H249V83Zm2,2h11.5l6.5,6.5V108H251V85Zm15-2h5v5Z" class="h"/><path d="M250,114h14.364L272,121.7V141H250V114Zm2,2h11.5l6.5,6.5V139H252V116Zm15-2h5v5Z" class="f"/><path d="M117 4c0 .012-.007.022-.007.034a.916.916 0 0 1 0 .181L115.9 9.1a.56.56 0 0 1-.024.054.986.986 0 0 1-.97.851H105a.983.983 0 0 1-.763-.376.983.983 0 0 1-.283-.573L103.048 2H101a1 1 0 1 1 0-2h2.906c.025 0 .046.012.07.014a.982.982 0 0 1 .319.064h0a.99.99 0 0 1 .624.808L105.192 3H116a.925.925 0 0 1 .093.019.938.938 0 0 1 .138 0 .864.864 0 0 1 .1.046.923.923 0 0 1 .113.05.966.966 0 0 1 .235.158c.017.016.032.033.048.05a.985.985 0 0 1 .179.266c.007.015.012.031.018.047a.96.96 0 0 1 .067.333A.272.272 0 0 1 117 4h0zm-11.165 4h8.26l.67-3h-9.316zm.669 3.012A2.488 2.488 0 1 1 104 13.5a2.5 2.5 0 0 1 2.5-2.488zm0 3.063a.575.575 0 1 0-.579-.575.577.577 0 0 0 .575.575zm7-3.079a2.5 2.5 0 1 1-2.5 2.5A2.5 2.5 0 0 1 113.5 11zm0 3.079a.575.575 0 1 0-.579-.575.577.577 0 0 0 .575.575z" class="h"/><path d="M83.993 4.034a.955.955 0 0 1 0 .181L82.9 9.1c0 .02-.018.034-.024.054a.987.987 0 0 1-.97.851H72a1.159 1.159 0 0 1-1.046-.948L70.048 2H68a1 1 0 1 1 0-2h2.906c.025 0 .046.012.07.014a.975.975 0 0 1 .318.064h0a.989.989 0 0 1 .624.808L72.192 3H83a.932.932 0 0 1 .093.019.943.943 0 0 1 .139 0 .937.937 0 0 1 .1.046 1.169 1.169 0 0 1 .347.208c.017.016.032.033.048.05a.974.974 0 0 1 .179.266c.007.015.012.031.018.047a.965.965 0 0 1 .067.333c.004.013.009.021.009.031h0c0 .012-.006.022-.007.034zM72.449 5l.386 3H81.1l.67-3h-9.321zm1.051 6.012A2.488 2.488 0 1 1 71 13.5a2.5 2.5 0 0 1 2.5-2.488zm0 3.063a.575.575 0 1 0-.579-.575.577.577 0 0 0 .579.575zm7-3.075a2.5 2.5 0 1 1-2.5 2.5 2.5 2.5 0 0 1 2.5-2.5zm0 3.079a.575.575 0 1 0-.579-.575.577.577 0 0 0 .579.571zM221 52V40l8-4 8 4v12h-16zm14-2v-6.065l-6 3-6-3V50h12zm-6-11.875l-6 3v.558l6 3 6-3v-.558z" class="f"/><path d="M161 134v-12l8-4 8 4v12h-16zm14-2v-6.065l-6 3-6-3V132h12zm-6-11.875l-6 3v.558l6 3 6-3v-.558zm91.675 178.293a.544.544 0 0 0 .144.119h0l.093.029.094-.029h0a.547.547 0 0 0 .145-.119s2.767-3.062 3.044-5.716a3.34 3.34 0 1 0-6.646-.416 3.464 3.464 0 0 0 .029.422c.29 2.653 3.097 5.71 3.097 5.71zm.216-7.937a1.8 1.8 0 1 1-1.772 1.8 1.79 1.79 0 0 1 1.772-1.8zm-7.885 12.5l1.067-6.981h1.98l-.766 5.01 11.432-.01-.816-5h1.961l1.136 6.969z" class="h"/><path d="M210.675 68.418a.532.532 0 0 0 .144.118h0l.093.03.094-.03h0a.535.535 0 0 0 .145-.118s2.767-3.062 3.044-5.716a3.34 3.34 0 1 0-6.646-.417 3.459 3.459 0 0 0 .029.422c.29 2.654 3.097 5.711 3.097 5.711zm.216-7.938a1.8 1.8 0 1 1-1.772 1.8 1.791 1.791 0 0 1 1.772-1.799zm-7.885 12.5l1.067-6.98h1.98l-.766 5.01 11.432-.01-.819-5h1.961L219 72.969z" class="f"/><path d="M233 77h-8a2 2 0 0 1-2-2V61a2 2 0 0 1 2-2h8a2 2 0 0 1 2 2v14a2 2 0 0 1-2 2zm0-16h-8v8h8v-8zm-8 10v4h8v-4h-8zm3 3v-2h2v2h-2z" class="h"/><path d="M197 76h-8a2 2 0 0 1-2-2V60a2 2 0 0 1 2-2h8a2 2 0 0 1 2 2v14a2 2 0 0 1-2 2zm0-16h-8v8h8v-8zm-8 10v4h8v-4h-8zm3 3v-2h2v2h-2zM168.788 5.393L164.54 9.64a.788.788 0 0 1-.691.211.8.8 0 0 1-.569-.235l-2.067-2.13a.803.803 0 0 1 1.135-1.135l1.582 1.63 3.723-3.723a.803.803 0 1 1 1.135 1.135z" class="f"/><path d="M373 280h-6v11h-1.988l-12.964-11H314a1 1 0 0 1 0-2h38.968L365 288.287V278h8a2 2 0 0 0 2-2v-46a2 2 0 0 0-2-2h-4a1 1 0 0 1 0-2h4a4 4 0 0 1 4 4v46a4 4 0 0 1-4 4zm-14-15h-45.014l-13.107 11H299v-11h-6a4 4 0 0 1-4-4v-46a4 4 0 0 1 4-4h66a4 4 0 0 1 4 4v46a4 4 0 0 1-4 4zm2-49.99a2 2 0 0 0-2-2h-66a2 2 0 0 0-2 2v46a2 2 0 0 0 2 2h8v10.2l12.152-10.2H359a2 2 0 0 0 2-2v-46zm-23.286 17.725l-13.947 13.947a1.153 1.153 0 0 1-1.534 0l-6.947-6.947a1.025 1.025 0 1 1 1.449-1.449l6.265 6.265 13.265-13.265a1.025 1.025 0 1 1 1.449 1.449zM231 122h-29.4l-8 7.289a2.94 2.94 0 0 1-2.6.608V122h-4a2 2 0 0 1-2-2V89a2 2 0 0 1 2-2h44a2 2 0 0 1 2 2v31a2 2 0 0 1-2 2zm0-33h-44v31h6v6.716a1.429 1.429 0 0 0 1.225-.7L200.9 120H231V89zm11 43h-4v7.948a2.51 2.51 0 0 1-2.414-.514L227.271 132H202a1 1 0 0 1 0-2h26.107l6.488 5.8a1.574 1.574 0 0 0 1.405.647V130h6V99h-4a1 1 0 0 1 0-2h4a2 2 0 0 1 2 2v31a2 2 0 0 1-2 2zm-25.294-30.306l-8 7.992a1.013 1.013 0 0 1-1.427 0l-4.993-4.983a1.008 1.008 0 0 1 1.426-1.424l4.288 4.274 7.286-7.281a1.006 1.006 0 1 1 1.42 1.422z" class="h"/><path d="M261 351a7 7 0 1 1 7-7 7 7 0 0 1-7 7zm2.717-8.3a1 1 0 0 0-1.414-1.415l-1.3 1.3-1.3-1.3a1 1 0 0 0-1.415 1.415l1.3 1.3-1.3 1.3a1 1 0 0 0 1.415 1.414l1.3-1.3 1.3 1.3a1 1 0 0 0 1.414-1.414l-1.3-1.3z" fill="#ccc"/></g></svg>