<svg xmlns="http://www.w3.org/2000/svg" xmlns:xlink="http://www.w3.org/1999/xlink" width="54" height="150" xmlns:v="https://vecta.io/nano"><style><![CDATA[.J{fill-rule:evenodd}]]></style><g class="J"><path d="M10.684 1.685l-5.933 6.01a1.009 1.009 0 0 1-.529.254.942.942 0 0 1-.189.036 1.037 1.037 0 0 1-.733-.29.942.942 0 0 1-.109-.16L.262 4.69a1.016 1.016 0 0 1 0-1.406.943.943 0 0 1 1.363 0L4 5.588 9.236.282a1.048 1.048 0 0 1 1.448 0 .97.97 0 0 1 0 1.403z" fill="#20af59"/><path d="M42.684 1.685l-5.933 6.01a1.01 1.01 0 0 1-.529.254.942.942 0 0 1-.188.036 1.037 1.037 0 0 1-.73-.289.948.948 0 0 1-.109-.16L32.262 4.69a1.016 1.016 0 0 1 0-1.406.943.943 0 0 1 1.363 0L36 5.588 41.238.283a1.048 1.048 0 0 1 1.448 0 .97.97 0 0 1-.002 1.402z" fill="#fff"/><path d="M10.684 11.685L4.751 17.7a1.01 1.01 0 0 1-.526.253.944.944 0 0 1-.192.036A1.036 1.036 0 0 1 3.3 17.7a.944.944 0 0 1-.109-.16L.262 14.69a1.016 1.016 0 0 1 0-1.406.943.943 0 0 1 1.363 0L4 15.588l5.238-5.305a1.048 1.048 0 0 1 1.448 0 .97.97 0 0 1-.002 1.402z" fill="#d9022c"/><path d="M26.684 1.685l-5.933 6.01a1.009 1.009 0 0 1-.529.254.942.942 0 0 1-.189.036 1.037 1.037 0 0 1-.73-.289.943.943 0 0 1-.109-.16L16.262 4.69a1.016 1.016 0 0 1 0-1.406.943.943 0 0 1 1.363 0L20 5.588 25.238.283a1.048 1.048 0 0 1 1.448 0 .971.971 0 0 1-.002 1.402z" fill="#ff8708"/></g><g fill="#222"><path d="M16 27h10v2H16z"/><path d="M10,29H6v4H4V29H0V27H4V23H6v4h4v2Z" class="J"/></g><path d="M26.684 11.685L20.751 17.7a1.009 1.009 0 0 1-.526.253.944.944 0 0 1-.192.036 1.037 1.037 0 0 1-.733-.289.943.943 0 0 1-.109-.16l-2.929-2.85a1.016 1.016 0 0 1 0-1.406.943.943 0 0 1 1.363 0L20 15.588l5.238-5.305a1.048 1.048 0 0 1 1.448 0 .971.971 0 0 1-.002 1.402z" fill="#00a4f1" class="J"/><path d="M7 52a7 7 0 1 1 7-7 7 7 0 0 1-7 7zm2.828-8.416a1 1 0 0 0-1.414-1.414L7 43.583l-1.415-1.414a1 1 0 1 0-1.414 1.414L5.585 45l-1.414 1.411a1 1 0 1 0 1.414 1.415L7 46.412l1.414 1.414a1 1 0 1 0 1.414-1.415L8.414 45z" fill="#ccc" class="J"/><g fill="#222" class="J"><path d="M11,98a2.972,2.972,0,0,1-1.857-.66L5.925,99.351a2.855,2.855,0,0,1,0,1.3l3.218,2.011a3,3,0,1,1-1.069,1.691L4.857,102.34a3,3,0,1,1,0-4.68l3.218-2.011A3,3,0,1,1,11,98Zm0,8.062A1.063,1.063,0,1,0,9.938,105,1.062,1.062,0,0,0,11,106.062ZM3,98.938A1.062,1.062,0,1,0,4.063,100,1.063,1.063,0,0,0,3,98.938Zm8-4.969A1.031,1.031,0,1,0,12.031,95,1.031,1.031,0,0,0,11,93.969Z"/><use xlink:href="#B"/><use xlink:href="#C"/></g><g fill="#fff" class="J"><path d="M11,119a2.972,2.972,0,0,1-1.857-.66l-3.218,2.011a2.855,2.855,0,0,1,0,1.3l3.218,2.011a3,3,0,1,1-1.069,1.691L4.857,123.34a3,3,0,1,1,0-4.68l3.218-2.011A3,3,0,1,1,11,119Zm0,8.062A1.063,1.063,0,1,0,9.938,126,1.062,1.062,0,0,0,11,127.062Zm-8-7.125A1.063,1.063,0,1,0,4.063,121,1.063,1.063,0,0,0,3,119.937Zm8-4.968A1.031,1.031,0,1,0,12.031,116,1.031,1.031,0,0,0,11,114.969Z"/><use xlink:href="#B" y="21"/><use xlink:href="#C" y="21"/></g><path d="M26 83H8.979l-5.635 3.608V86.6a1.983 1.983 0 0 1-1.187.4H2a2 2 0 0 1-2-2v-1-23a4 4 0 0 1 4-4h22a4 4 0 0 1 4 4v18a4 4 0 0 1-4 4zm2-22a2 2 0 0 0-2-2H4a2 2 0 0 0-2 2v24l6.247-4H26a2 2 0 0 0 2-2V61zm-17.5 1A3.5 3.5 0 1 1 7 65.5a3.5 3.5 0 0 1 3.5-3.5zm0 2A1.5 1.5 0 1 1 9 65.5a1.5 1.5 0 0 1 1.5-1.5zm9 7a3.5 3.5 0 1 1-3.5 3.5 3.5 3.5 0 0 1 3.5-3.5zm0 2a1.5 1.5 0 1 1-1.5 1.5 1.5 1.5 0 0 1 1.5-1.5zM8.278 75.249l11.971-11.971a1.019 1.019 0 1 1 1.441 1.441L9.719 76.69a1.019 1.019 0 0 1-1.441-1.441zM8 150a8 8 0 1 1 8-8 8 8 0 0 1-8 8zm0-14a6 6 0 1 0 6 6 6 6 0 0 0-6-6zm0 10a1 1 0 0 1-1-1v-3a1 1 0 1 1 2 0v3a1 1 0 0 1-1 1zm0-6a1 1 0 1 1 1-1 1 1 0 0 1-1 1z" fill="#999" class="J"/><path d="M31.992 142a.911.911 0 0 1-.014.188.952.952 0 0 1-.069.2.932.932 0 0 1-.041.117c-.011.018-.03.028-.042.045a.966.966 0 0 1-.138.149.98.98 0 0 1-.157.132.592.592 0 0 1-.048.04l-10.917 6a1.069 1.069 0 0 1-.5.12c-.024 0-.045.014-.07.014a.925.925 0 0 1-.139-.028 1.087 1.087 0 0 1-.139-.028.944.944 0 0 1-.251-.117.817.817 0 0 1-.1-.065 44.516 44.516 0 0 1-.243-.262c-.013-.021-.013-.045-.024-.067a.987.987 0 0 1-.048-.136.929.929 0 0 1-.054-.269c0-.01-.006-.018-.006-.028V136c0-.01.005-.018.006-.028a.929.929 0 0 1 .054-.269.987.987 0 0 1 .048-.136c.011-.022.011-.046.024-.067a44.516 44.516 0 0 1 .243-.262.817.817 0 0 1 .1-.065.944.944 0 0 1 .251-.117 1.087 1.087 0 0 1 .139-.028A.925.925 0 0 1 20 135c.025 0 .046.012.07.014a1.069 1.069 0 0 1 .5.12l10.917 6a.592.592 0 0 1 .048.04.98.98 0 0 1 .157.132.966.966 0 0 1 .138.149c.012.017.031.027.042.045a.932.932 0 0 1 .041.117.952.952 0 0 1 .069.2.911.911 0 0 1 .01.183zm-3.135 0L21 137.682v8.636z" fill="#222" class="J"/><defs ><path id="B" d="M52 105h-2v3h-8v-3h-2a2 2 0 0 1-2-2v-5a2 2 0 0 1 2-2h2v-4h8v4h2a2 2 0 0 1 2 2v5a2 2 0 0 1-2 2zm-8 1h4v-4h-4v4zm4-12h-4v2h4v-2zm4 4H40v5h2v-3h8v3h2v-5z"/><path id="C" d="M32 107a1 1 0 0 1-1-1h0a11 11 0 0 0-11-11h0a1 1 0 0 1 0-2 13 13 0 0 1 13 13 1 1 0 0 1-1 1zm-4-1a1 1 0 0 1-2 0h0a6 6 0 0 0-6-6h0a1 1 0 0 1 0-2h0a8 8 0 0 1 8 8zm-7-3a2 2 0 1 1-2 2 2 2 0 0 1 2-2z"/></defs></svg>