<?xml version="1.0" encoding="utf-8"?>
<!-- Generator: Adobe Illustrator 23.1.0, SVG Export Plug-In . SVG Version: 6.00 Build 0)  -->
<!DOCTYPE svg PUBLIC "-//W3C//DTD SVG 1.1//EN" "http://www.w3.org/Graphics/SVG/1.1/DTD/svg11.dtd" [
	<!ENTITY ns_extend "http://ns.adobe.com/Extensibility/1.0/">
	<!ENTITY ns_ai "http://ns.adobe.com/AdobeIllustrator/10.0/">
	<!ENTITY ns_graphs "http://ns.adobe.com/Graphs/1.0/">
	<!ENTITY ns_vars "http://ns.adobe.com/Variables/1.0/">
	<!ENTITY ns_imrep "http://ns.adobe.com/ImageReplacement/1.0/">
	<!ENTITY ns_sfw "http://ns.adobe.com/SaveForWeb/1.0/">
	<!ENTITY ns_custom "http://ns.adobe.com/GenericCustomNamespace/1.0/">
	<!ENTITY ns_adobe_xpath "http://ns.adobe.com/XPath/1.0/">
]>
<svg version="1.1" id="Слой_1" xmlns:x="&ns_extend;" xmlns:i="&ns_ai;" xmlns:graph="&ns_graphs;"
	 xmlns="http://www.w3.org/2000/svg" xmlns:xlink="http://www.w3.org/1999/xlink" x="0px" y="0px" viewBox="0 0 81.462 95.959"
	 style="enable-background:new 0 0 81.462 95.959;" xml:space="preserve">
<style type="text/css">
	.st0{opacity:0.05;}
	.st1{fill:#1891f6;}
</style>
<metadata>
	<sfw  xmlns="&ns_sfw;">
		<slices></slices>
		<sliceSourceBounds  bottomLeftOrigin="true" height="100.788" width="167.754" x="-32.316" y="-107.77"></sliceSourceBounds>
	</sfw>
</metadata>
<g class="st0">
	<g>
		<g>
			<path class="st1" d="M2.5,95.959c0.055-18.147,8.657-37.571,25.86-45.408c4.165-1.897,8.828-2.855,13.416-2.875
				c3.217-0.014,3.223-5.014,0-5c-9.578,0.043-18.599,3.786-25.828,9.982C8.369,59.153,3.077,68.132,0.184,77.622
				C-1.623,83.546-2.481,89.77-2.5,95.959C-2.51,99.176,2.49,99.181,2.5,95.959L2.5,95.959z"/>
		</g>
	</g>
	<g>
		<g>
			<path class="st1" d="M78.962,0.006c-0.059,16.472-8.691,33.544-24.432,40.119c-4.033,1.685-8.379,2.531-12.755,2.551
				c-3.217,0.015-3.223,5.015,0,5c9.032-0.042,17.575-3.314,24.594-8.935c7.144-5.721,12.269-13.783,15.071-22.448
				c1.695-5.243,2.503-10.782,2.522-16.287C83.974-3.212,78.974-3.217,78.962,0.006L78.962,0.006z"/>
		</g>
	</g>
</g>
<g class="st0">
	<g>
		<path class="st1" d="M83.962,95.959c0.055-18.147,8.657-37.571,25.86-45.408c4.165-1.897,8.828-2.855,13.416-2.875
			c3.217-0.014,3.223-5.014,0-5c-9.578,0.043-18.599,3.786-25.828,9.982c-7.578,6.495-12.87,15.474-15.764,24.964
			c-1.806,5.925-2.665,12.148-2.684,18.337C78.952,99.176,83.952,99.181,83.962,95.959L83.962,95.959z"/>
	</g>
</g>
<g class="st0">
	<g>
		<path class="st1" d="M-2.5,0c-0.059,16.472-8.691,33.544-24.432,40.119c-4.033,1.685-8.379,2.531-12.755,2.551
			c-3.217,0.015-3.223,5.015,0,5c9.032-0.042,17.575-3.314,24.594-8.935c7.144-5.721,12.269-13.783,15.071-22.448
			C1.673,11.044,2.48,5.505,2.5,0C2.511-3.218-2.489-3.222-2.5,0L-2.5,0z"/>
	</g>
</g>
</svg>
