<svg xmlns="http://www.w3.org/2000/svg" xmlns:xlink="http://www.w3.org/1999/xlink" width="884" height="663" viewBox="0 0 884 663"><defs><path id="t8xra" d="M85.033 4221.65c14.647-1.88 30.458-3.011 47.164-3.448a614.614 614.614 0 0 1 15.915-.209 691.845 691.845 0 0 1 9.78.065c8.767.121 17.723.407 26.836.851 36.45 1.775 75.401 6.068 114.707 12.313 78.6 12.634 158.685 32.365 222.88 58.325 65.279 26.143 116.2 59.268 147.555 103.424 31.971 43.83 44.403 99.57 47.118 161.775.012 7.547-.162 15.141-.523 22.735a454.104 454.104 0 0 1-1.65 22.738c-1.481 15.1-3.728 30.019-6.769 44.399-6.083 28.76-15.343 55.352-28.017 76.956-25.08 44.249-64.015 68.37-111.761 80.962-96.198 23.857-223.367 17.675-334.586 44.982-27.66 6.197-54.131 12.464-79.333 17.862-12.601 2.696-24.886 5.172-36.85 7.295a696.669 696.669 0 0 1-13.326 2.233c-1.465.23-2.926.453-4.381.67a494.214 494.214 0 0 1-17.226 2.273c-11.327 1.286-22.33 2.08-33.017 2.258-5.344.088-10.608.022-15.796-.214a216.587 216.587 0 0 1-15.33-1.23c-20.134-2.35-39.046-7.662-56.836-16.697-69.345-33.268-123.504-124.998-127.603-222.7a339.386 339.386 0 0 1-.971-27.921c.018-3.05.077-6.085.174-9.102.386-12.071 1.384-23.884 2.861-35.476 2.953-23.185 7.828-45.484 13.514-67.187 11.699-43.28 26.634-84.157 43.587-122.017 17.289-37.725 36.58-72.476 64.743-100.4 28.502-27.795 65.873-48.685 127.141-55.516z"/><linearGradient id="t8xrb" x1="465.99" x2="84.01" y1="4880.15" y2="4217.99" gradientUnits="userSpaceOnUse"><stop offset="0" stop-color="#214ebe"/><stop offset="1" stop-color="#4774e5"/></linearGradient></defs><g><g transform="translate(167 -4218)"><use fill="#2653c3" xlink:href="#t8xra"/><use fill="url(#t8xrb)" xlink:href="#t8xra"/></g></g></svg>