<svg xmlns="http://www.w3.org/2000/svg" xmlns:xlink="http://www.w3.org/1999/xlink" viewBox="0 0 279.19 92.98" xmlns:v="https://vecta.io/nano"><path d="M0 81.73l23.47-29.12 12.75 12.75-21.85 27.62z" fill="#a38763"/><path d="M115.55 21.51l12.92 27.73h-2.95l-4.36-9.15h-11.97l-4.32 9.15h-3.1l13.11-27.73h.67zm-.34 5.88l-4.79 10.06h9.5l-4.71-10.06zm17.69-5.8h5.52c3.08 0 5.17.13 6.26.37 1.65.37 2.99 1.18 4.02 2.42s1.55 2.77 1.55 4.57c0 1.52-.36 2.85-1.06 3.98-.71 1.13-1.73 2-3.06 2.59s-2.48.89-3.45.89l7.95 12.9h-3.4l-7.95-12.9h-3.61v12.9h-2.77V21.59zm2.77 2.71v9.43l4.77.04c1.85 0 3.21-.17 4.1-.52s1.58-.91 2.08-1.68c.49-.77.74-1.64.74-2.6a4.42 4.42 0 0 0-.76-2.52 4.24 4.24 0 0 0-1.97-1.64c-.81-.33-2.17-.5-4.08-.5h-4.88zm20.5-2.71h15.9v2.73h-13.13V33h8v2.69h-8v10.88h13.02v2.75h-15.78V21.59zm21.37 27.73V21.59h.6l18.44 21.23V21.59h2.73v27.73h-.64l-18.25-20.96v20.96h-2.88zm39.84-27.81l12.92 27.73h-2.96l-4.36-9.15h-11.97l-4.32 9.15h-3.1l13.11-27.73h.68zm-.34 5.88l-4.79 10.06h9.5l-4.71-10.06z" fill="#1a387a"/><g fill="#a38763"><path d="M81.98 63.98h7.64v9.11h-1.17v-8h-5.29v8h-1.18v-9.11zm10.24 0h1.16v1.68c.46-.64.99-1.12 1.6-1.44.61-.31 1.28-.47 2.02-.47a4.5 4.5 0 0 1 3.32 1.39c.92.93 1.38 2.05 1.38 3.36 0 1.34-.46 2.48-1.37 3.41a4.45 4.45 0 0 1-3.3 1.4 4.48 4.48 0 0 1-2-.45c-.61-.3-1.16-.75-1.65-1.34v4.89h-1.16V63.98zm4.68.89c-1.01 0-1.86.35-2.56 1.06s-1.05 1.59-1.05 2.64c0 .69.16 1.32.46 1.87.31.56.75.99 1.33 1.32s1.18.48 1.83.48c.63 0 1.22-.16 1.78-.49s1-.78 1.33-1.37.49-1.2.49-1.83c0-.65-.16-1.27-.49-1.85s-.77-1.03-1.32-1.35a3.49 3.49 0 0 0-1.8-.48z"/><use xlink:href="#B"/><path d="M114.75 72.09l3.52-8.11h.61l3.49 8.11h1.1v2.16h-1.13v-1.16h-7.53v1.21h-1.15v-2.21h1.09zm3.79-6.31l-2.66 6.31h5.21l-2.55-6.31z"/><use xlink:href="#C"/><path d="M134.21 63.98v6.73l6.68-6.73h.09v9.11h-1.18v-6.67l-6.63 6.67h-.14v-9.11h1.18zm14.04 0h1.19V68l4.35-4.03h1.44l-4.3 4.05 4.62 5.05h-1.49l-3.94-4.41-.66.56v3.84h-1.19v-3.84l-.66-.56-3.93 4.41h-1.49l4.57-5.05-4.23-4.05h1.44l4.3 4.03v-4.02z"/><use xlink:href="#D"/><path d="M174.39 68.7h-5.29v4.38h-1.18v-9.11h1.18v3.62h5.29v-3.62h1.17v9.11h-1.17V68.7zm4.94-4.72v6.73l6.68-6.73h.09v9.11h-1.18v-6.67l-6.63 6.67h-.14v-9.11h1.18z"/><use xlink:href="#D" x="32.17"/><path d="M213.5 65.87l-.93.58c-.8-1.07-1.9-1.61-3.29-1.61-1.11 0-2.03.36-2.77 1.07a3.5 3.5 0 0 0-1.1 2.61c0 .66.17 1.29.51 1.88s.8 1.04 1.39 1.37c.59.32 1.24.48 1.97.48 1.35 0 2.44-.53 3.29-1.59l.93.61c-.44.65-1.02 1.16-1.75 1.52s-1.57.54-2.51.54c-1.43 0-2.63-.46-3.57-1.37a4.43 4.43 0 0 1-1.42-3.33c0-.89.22-1.71.67-2.46.45-.76 1.05-1.34 1.83-1.77.77-.42 1.64-.63 2.6-.63a5.65 5.65 0 0 1 1.74.27c.56.18 1.04.42 1.43.72.38.27.71.65.98 1.11zm11.13-1.89v9.11h-1.15v-1.57c-.49.6-1.04 1.05-1.65 1.34a4.48 4.48 0 0 1-2 .45 4.45 4.45 0 0 1-3.3-1.4c-.91-.93-1.37-2.07-1.37-3.41 0-1.31.46-2.43 1.38-3.36a4.5 4.5 0 0 1 3.32-1.39c.75 0 1.43.16 2.03.47.6.32 1.13.79 1.59 1.44v-1.68h1.15zm-4.68.89c-.65 0-1.25.16-1.8.48s-.99.77-1.32 1.35a3.66 3.66 0 0 0-.49 1.85c0 .64.17 1.25.5 1.83s.78 1.04 1.33 1.37a3.41 3.41 0 0 0 1.78.49c.64 0 1.25-.16 1.83-.48s1.02-.76 1.33-1.32.46-1.18.46-1.87c0-1.05-.35-1.93-1.04-2.64s-1.57-1.06-2.58-1.06zm8.04-.89v6.73l6.68-6.73h.09v9.11h-1.18v-6.67l-6.63 6.67h-.14v-9.11h1.18zm-.17-3.66h1.11a1.7 1.7 0 0 0 .75.65c.32.15.7.22 1.14.22s.8-.06 1.08-.19.54-.35.78-.67h1.06c-.12.5-.43.92-.93 1.26-.51.33-1.17.5-2 .5-.81 0-1.48-.17-2-.5s-.84-.76-.99-1.27zm7.96 3.66h5.99v1.01h-2.4v8.09h-1.19v-8.09h-2.4v-1.01z"/><use xlink:href="#B" x="139.19"/><use xlink:href="#C" x="128.89"/></g><path d="M23.54.73C24.99-.13 27.83 0 27.83 0h10.85c2.6 0 5.2.2 7.38 1.25 2.48 1.2 3.43 3.63 5.74 7.29s4.88 8.84 6.73 13.19 1.7 9.54 1.05 12.33c-.53 2.31-2.27 5.01-3.82 7.42-.95 1.48-3.31 4.11-4.98 5.9a2.27 2.27 0 0 1-3.44-.14l-8.7-10.9a2.28 2.28 0 0 1-.03-2.8c5.65-6.02 9.34-10.88 9.62-12.64.2-1.32-.33-2.04-.33-2.04-.42-.57-1.07-.77-1.46-.86H29.98c-2.37 0-4.79-1.07-6.45-2.13-2.23-1.43-1.9-12.66-1.9-12.66 0-.73.35-1.41.94-1.84.26-.19.58-.4.97-.64z" fill="#203a76"/><path d="M7.22 33.14c1.3 5.98 4.99 9.72 6.46 11.63 6.59 8.57 38.37 48.21 38.37 48.21l14.47-11.42-41.37-50.9s-6.07-6.2-7.65-10.29-1.45-14.11-1.45-14.11c-4.42 5.55-11.21 15.92-8.83 26.88z" fill="#5877ba"/><defs ><path id="B" d="M108.25 63.74c1.4 0 2.56.51 3.49 1.52a4.79 4.79 0 0 1 1.25 3.29c0 1.26-.44 2.38-1.33 3.32s-2.02 1.42-3.41 1.42-2.53-.47-3.42-1.42-1.32-2.06-1.32-3.32a4.79 4.79 0 0 1 1.25-3.29c.93-1.01 2.09-1.52 3.49-1.52zm0 1.15a3.36 3.36 0 0 0-2.5 1.08c-.7.72-1.05 1.59-1.05 2.61 0 .66.16 1.27.48 1.85.32.57.75 1.01 1.29 1.32a3.5 3.5 0 0 0 1.78.46c.65 0 1.25-.15 1.79-.46a3.32 3.32 0 0 0 1.28-1.32c.32-.57.47-1.19.47-1.85 0-1.02-.35-1.89-1.05-2.61s-1.52-1.08-2.49-1.08z"/><path id="C" d="M127.67 73.08h-2.64v-9.11h2.6c1 0 1.71.23 2.15.69s.66.99.66 1.6c0 .93-.41 1.56-1.23 1.88 1.18.41 1.78 1.22 1.78 2.42 0 1.68-1.11 2.52-3.32 2.52zm-1.46-8.09v2.84h.76c.69 0 1.14-.03 1.36-.08s.41-.19.6-.41.28-.51.28-.87c0-.39-.1-.71-.29-.96s-.4-.4-.61-.45-.65-.07-1.32-.07h-.78zm0 3.92v3.19h1.25c.59 0 1.02-.04 1.27-.12s.47-.24.66-.49c.18-.25.27-.56.27-.95 0-.5-.16-.9-.47-1.19-.31-.3-.73-.44-1.24-.44h-1.74z"/><path id="D" d="M164.19 70.06l.98.52c-.32.64-.69 1.15-1.11 1.54-.43.39-.9.68-1.44.88s-1.13.3-1.8.3c-1.48 0-2.64-.49-3.48-1.46s-1.25-2.07-1.25-3.29c0-1.16.35-2.19 1.06-3.09.9-1.15 2.1-1.73 3.61-1.73 1.54 0 2.78.59 3.71 1.77.66.83.99 1.87 1 3.11h-8.18c.02 1.06.36 1.93 1.01 2.61s1.46 1.02 2.42 1.02c.46 0 .92-.08 1.35-.25a3.69 3.69 0 0 0 1.12-.64c.31-.26.64-.69 1-1.29zm0-2.45c-.16-.63-.38-1.13-.68-1.5s-.69-.68-1.19-.91a3.61 3.61 0 0 0-1.55-.34c-.89 0-1.66.29-2.3.86-.46.42-.82 1.05-1.05 1.88h6.77z"/></defs></svg>