<svg xmlns="http://www.w3.org/2000/svg" width="16.468" height="16.092" viewBox="0 0 16.468 16.092">
  <g id="check-mark-button" transform="translate(0 -0.158)">
    <g id="Group_3" data-name="Group 3">
      <path id="Fill_1" data-name="Fill 1" d="M8.234,16.092A8.151,8.151,0,0,1,0,8.046,8.151,8.151,0,0,1,8.234,0a8.151,8.151,0,0,1,8.234,8.046A8.151,8.151,0,0,1,8.234,16.092Zm0-14.8a6.838,6.838,0,0,0-6.908,6.75,6.837,6.837,0,0,0,6.908,6.748,6.837,6.837,0,0,0,6.907-6.748A6.837,6.837,0,0,0,8.234,1.3Z" transform="translate(0 0.158)" fill="#e02020"/>
    </g>
    <path id="Fill_4" data-name="Fill 4" d="M6.382.189,2.539,3.946,1.132,2.57a.674.674,0,0,0-.937,0,.637.637,0,0,0,0,.917L2.07,5.321a.676.676,0,0,0,.938,0L7.32,1.106a.637.637,0,0,0,0-.917A.676.676,0,0,0,6.382.189Z" transform="translate(4.477 5.449)" fill="#e02020"/>
  </g>
</svg>
